<svg width="400" height="226" viewBox="0 0 400 226" fill="none" xmlns="http://www.w3.org/2000/svg">
<g clip-path="url(#clip0_16_626)">
<path d="M240.38 167.593C243.475 167.617 246.565 167.346 249.608 166.785C252.075 166.326 254.545 165.67 257.109 165.796C259.05 165.891 260.841 166.431 262.748 166.72C267.21 167.4 271.885 166.683 276.282 165.85C276.82 165.718 277.376 165.677 277.927 165.728C278.357 165.817 278.773 165.965 279.162 166.169C282.178 167.512 286.097 167.638 289.785 167.716L307.21 168.093C311.783 168.192 316.529 168.273 320.729 167.121C323.637 166.326 326.528 164.929 329.618 165.374C330.928 165.561 332.058 166.054 333.303 166.394C336.641 167.243 340.428 166.672 344 166.822C349.89 167.067 356.071 169.235 361.333 167.542C361.333 167.542 379.26 165.299 389.595 167.417H392.387C398.558 167.417 402.341 174.394 397.815 176.229C386.938 180.647 388.516 181.238 374.718 181.84L346.395 188.678C345.696 188.819 345.004 188.999 344.322 189.215C343.83 189.357 343.766 190.36 344.227 190.645C345.584 191.485 352.031 193.402 352.346 193.837C354.653 197.137 338.222 196.77 336.964 196.518C327.725 194.649 321.405 200.202 314.531 204.243C306.809 208.78 301.696 210.479 293.445 211.913C288.797 212.725 284.014 211.832 279.471 213.497C275.328 215.016 271.668 218.554 267.78 221.12C256.584 228.471 235.24 225.647 223.04 224.399C187.342 220.76 160.339 217.052 124.933 209.385C112.719 206.737 100.322 203.842 88.0475 205.949C77.4792 207.76 69.9508 207.93 59.4741 205.205C46.6972 201.881 28.5768 186.853 15.7082 189.069C12.6887 189.589 10.9143 187.315 8.17981 185.33C5.44529 183.345 18.6361 182.227 13.4792 181.191C9.91009 181.191 2.90755 178.625 0.790499 174.367C-1.32655 170.108 1.0687 168.589 5.80831 166.921L13.6421 166.135C14.9618 166.112 16.3121 166.227 17.5776 165.972C18.6192 165.762 19.637 165.293 20.7023 165.446C21.3548 165.586 21.9833 165.821 22.5683 166.142C24.4546 166.968 26.8193 167.094 29.0416 166.931C31.2638 166.768 33.4148 166.36 35.6234 166.186C37.6477 166.065 39.6769 166.046 41.7031 166.129L49.1366 166.312C50.8329 166.353 52.6209 166.384 54.1578 165.87C54.704 165.69 55.257 165.435 55.8541 165.483C56.0991 165.515 56.34 165.572 56.5734 165.653L60.0509 166.761C60.0509 166.761 61.3639 166.353 62.246 165.962C63.3757 165.463 64.8109 167.4 66.151 167.451C67.4911 167.502 69.0789 166.751 68.7159 165.85C71.4945 166.479 74.5276 167.107 77.2723 166.411C77.7848 166.251 78.3088 166.13 78.8397 166.051C79.5433 166.028 80.2473 166.08 80.9398 166.207C83.0388 166.46 85.1665 166.117 87.0806 165.218C87.462 164.982 87.8953 164.843 88.3427 164.813C89.1535 164.83 89.5607 165.493 90.1544 165.864C91.1111 166.482 92.587 166.404 93.8864 166.346C97.4928 166.18 100.831 166.625 104.346 167.077C107.369 167.468 110.453 166.893 113.506 166.737C121.232 166.37 128.974 166.815 136.675 167.23C141.506 167.491 149.462 167.627 154.215 166.968C158.372 166.39 177.439 166.754 184.356 166.557C186.392 166.499 189.866 167.053 191.841 167.369C193.815 167.685 197.859 167.675 198.188 166.285C202.799 167.95 223.562 166.839 228.723 167.189L240.38 167.593Z" fill="#F2F9F8"/>
<path style="mix-blend-mode:darken" opacity="0.5" d="M240.38 167.593C243.475 167.617 246.565 167.346 249.608 166.785C252.075 166.326 254.545 165.67 257.109 165.796C259.05 165.891 260.841 166.431 262.748 166.72C267.21 167.4 271.885 166.683 276.282 165.85C276.82 165.718 277.376 165.677 277.927 165.728C278.357 165.817 278.773 165.965 279.162 166.169C282.178 167.512 286.097 167.638 289.785 167.716L307.21 168.093C311.783 168.192 316.529 168.273 320.729 167.121C323.637 166.326 326.528 164.929 329.618 165.374C330.928 165.561 332.058 166.054 333.303 166.394C336.641 167.243 340.428 166.672 344 166.822C349.89 167.067 356.071 169.235 361.333 167.542C361.333 167.542 379.26 165.299 389.595 167.417H392.387C398.558 167.417 402.341 174.394 397.815 176.229C386.938 180.647 388.516 181.238 374.718 181.84L346.395 188.678C345.696 188.819 345.004 188.999 344.322 189.215C343.83 189.357 343.766 190.36 344.227 190.645C345.584 191.485 352.031 193.402 352.346 193.837C354.653 197.137 338.222 196.77 336.964 196.518C327.725 194.649 321.405 200.202 314.531 204.243C306.809 208.78 301.696 210.479 293.445 211.913C288.797 212.725 284.014 211.832 279.471 213.497C275.328 215.016 271.668 218.554 267.78 221.12C256.584 228.471 235.24 225.647 223.04 224.399C187.342 220.76 160.339 217.052 124.933 209.385C112.719 206.737 100.322 203.842 88.0475 205.949C77.4792 207.76 69.9508 207.93 59.4741 205.205C46.6972 201.881 28.5768 186.853 15.7082 189.069C12.6887 189.589 10.9143 187.315 8.17981 185.33C5.44529 183.345 18.6361 182.227 13.4792 181.191C9.91009 181.191 2.90755 178.625 0.790499 174.367C-1.32655 170.108 1.0687 168.589 5.80831 166.921L13.6421 166.135C14.9618 166.112 16.3121 166.227 17.5776 165.972C18.6192 165.762 19.637 165.293 20.7023 165.446C21.3548 165.586 21.9833 165.821 22.5683 166.142C24.4546 166.968 26.8193 167.094 29.0416 166.931C31.2638 166.768 33.4148 166.36 35.6234 166.186C37.6477 166.065 39.6769 166.046 41.7031 166.129L49.1366 166.312C50.8329 166.353 52.6209 166.384 54.1578 165.87C54.704 165.69 55.257 165.435 55.8541 165.483C56.0991 165.515 56.34 165.572 56.5734 165.653L60.0509 166.761C60.0509 166.761 61.3639 166.353 62.246 165.962C63.3757 165.463 64.8109 167.4 66.151 167.451C67.4911 167.502 69.0789 166.751 68.7159 165.85C71.4945 166.479 74.5276 167.107 77.2723 166.411C77.7848 166.251 78.3088 166.13 78.8397 166.051C79.5433 166.028 80.2473 166.08 80.9398 166.207C83.0388 166.46 85.1665 166.117 87.0806 165.218C87.462 164.982 87.8953 164.843 88.3427 164.813C89.1535 164.83 89.5607 165.493 90.1544 165.864C91.1111 166.482 92.587 166.404 93.8864 166.346C97.4928 166.18 100.831 166.625 104.346 167.077C107.369 167.468 110.453 166.893 113.506 166.737C121.232 166.37 128.974 166.815 136.675 167.23C141.506 167.491 149.462 167.627 154.215 166.968C158.372 166.39 177.439 166.754 184.356 166.557C186.392 166.499 189.866 167.053 191.841 167.369C193.815 167.685 197.859 167.675 198.188 166.285C202.799 167.95 223.562 166.839 228.723 167.189L240.38 167.593Z" fill="url(#paint0_linear_16_626)"/>
<path d="M155.783 2.84114H248.502L218.422 158.18L102.718 158.006L155.783 2.84114Z" fill="#018A72"/>
<g style="mix-blend-mode:multiply" opacity="0.2">
<path d="M155.783 2.84114H248.502L218.422 158.18L102.718 158.006L155.783 2.84114Z" fill="black"/>
</g>
<path d="M197.52 158.271L197.262 158.084L232.668 2.74938L232.93 2.9363L197.52 158.271ZM153.279 158.006H152.984L191.844 2.74938L192.105 2.9363L153.279 158.006ZM129.842 158.006H129.418L175.461 2.84114H175.756L129.842 158.006Z" fill="#01AC8E"/>
<path d="M98.8906 155.417L152.105 0.217506L155.79 2.98048L102.575 158.18L98.8906 155.417Z" fill="#F2F9F8"/>
<path d="M152.105 0.231098L261.296 0L264.546 3.06205L155.79 2.99068L152.105 0.231098Z" fill="#B5E0DA"/>
<path d="M281.177 121.347H120.601V169.333H281.177V121.347Z" fill="#018A72"/>
<path d="M281.177 121.347H120.601V169.333H281.177V121.347Z" fill="#018A72"/>
<path d="M163.444 121.347H162.979V169.333H163.444V121.347ZM135.389 121.347H134.924V169.333H135.389V121.347ZM220.516 121.347H220.051V169.333H220.516V121.347ZM192.465 121.347H192V169.333H192.465V121.347Z" fill="#01AC8E"/>
<path d="M120.601 121.347L116.485 131.828V169.333H120.601V121.347Z" fill="#F2F9F8"/>
<path d="M328.74 121.347H214.039V169.333H328.74V121.347Z" fill="#018A72"/>
<path d="M209.924 121.347L214.039 131.828V169.333H209.924V121.347ZM223.712 169.333H104.702V174.071H223.712V169.333Z" fill="#F2F9F8"/>
<path d="M342.721 169.333H223.712V174.071H342.721V169.333Z" fill="#01AC8E"/>
<g style="mix-blend-mode:multiply" opacity="0.1">
<path d="M192.685 123.396H196.438C201.527 123.396 201.527 117.588 196.438 117.588C201.459 117.649 201.527 112.031 196.505 111.97C201.486 111.97 201.486 106.094 196.505 106.094C201.486 106.094 201.486 100.551 196.505 100.551H192.685V123.396Z" fill="black"/>
</g>
<path d="M182.1 99.9056V125.221H194.86V99.9056H182.1Z" fill="white"/>
<path d="M188.821 125.207V119.43H196.031C196.307 119.43 196.58 119.484 196.836 119.59C197.091 119.696 197.323 119.851 197.518 120.047C197.713 120.243 197.868 120.475 197.974 120.731C198.08 120.986 198.134 121.26 198.134 121.537V123.094C198.134 123.652 197.912 124.188 197.518 124.583C197.123 124.979 196.588 125.201 196.031 125.201H188.821V125.207ZM188.821 118.703V112.925H196.031C196.307 112.925 196.58 112.98 196.836 113.085C197.091 113.191 197.323 113.346 197.518 113.542C197.713 113.738 197.868 113.97 197.974 114.226C198.08 114.482 198.134 114.756 198.134 115.032V116.589C198.134 117.148 197.912 117.684 197.518 118.079C197.123 118.474 196.588 118.696 196.031 118.696H188.821V118.703ZM188.821 112.198V106.421H196.031C196.307 106.42 196.58 106.475 196.836 106.581C197.091 106.687 197.323 106.842 197.518 107.037C197.713 107.233 197.868 107.465 197.974 107.721C198.08 107.977 198.134 108.251 198.134 108.528V110.084C198.134 110.643 197.912 111.179 197.518 111.574C197.123 111.969 196.588 112.191 196.031 112.191H188.821V112.198ZM188.821 105.697V99.9192H196.017C196.293 99.9191 196.567 99.9735 196.822 100.079C197.077 100.185 197.309 100.34 197.505 100.536C197.7 100.732 197.855 100.964 197.961 101.22C198.066 101.475 198.121 101.75 198.12 102.026V103.583C198.12 104.142 197.899 104.678 197.504 105.073C197.11 105.468 196.575 105.69 196.017 105.69H188.821V105.697Z" fill="white"/>
<path d="M157.737 9.7197C157.737 9.7197 164.638 136.715 141.045 169.333H125.683V121.347L157.737 9.7197Z" fill="url(#paint1_linear_16_626)"/>
<path d="M140.957 108.351H144.492M140.957 143.44H144.492H140.957ZM125.571 155.165H127.45H125.571ZM134.158 164.205V161.028V164.205ZM140.957 155.165H144.492H140.957ZM125.571 143.44H127.098H125.571ZM134.158 152.48V149.303V152.48ZM140.957 131.746H144.492H140.957ZM125.927 131.746H127.45H125.927ZM134.158 140.786V137.605V140.786ZM140.957 120.048H144.492H140.957Z" stroke="#B5E0DA" stroke-miterlimit="10"/>
<path d="M142.046 60.2417H144.492M140.957 96.6532H144.492H140.957ZM140.957 84.9556H144.492H140.957ZM140.957 71.9598H144.492H140.957Z" stroke="white" stroke-miterlimit="10"/>
<path d="M134.158 105.748V102.567M134.158 129.088V125.911V129.088ZM134.158 116.878V113.697V116.878Z" stroke="#B5E0DA" stroke-miterlimit="10"/>
<path d="M150.602 44.9111V41.7335M150.602 92.4085V89.2275V92.4085ZM150.602 80.6837V77.5061V80.6837ZM150.602 68.0753V64.8943V68.0753ZM150.602 55.4635V52.2859V55.4635Z" stroke="white" stroke-miterlimit="10"/>
<path d="M154.904 109.234H157.686M150.602 140.786V137.605V140.786ZM150.602 129.088V125.911V129.088ZM150.602 116.878V113.697V116.878ZM150.602 102.567V105.748V102.567ZM154.904 120.562H156.489H154.904Z" stroke="#B5E0DA" stroke-miterlimit="10"/>
<path d="M154.904 28.1565H158.439M154.904 96.6532H158.439H154.904ZM154.076 85.4722H157.615H154.076ZM158.439 73.4075H154.904H158.439ZM154.904 60.2417H158.439H154.904ZM154.904 48.5475H158.439H154.904ZM154.904 37.951H158.439H154.904Z" stroke="white" stroke-miterlimit="10"/>
<path d="M119.511 73.4075C119.511 73.4075 115.471 142.166 186.779 125.506V98.9982C186.779 98.9982 156.583 106.658 150.324 80.4798C148.583 73.2138 143.013 67.3956 135.756 65.6624C130.222 64.3505 124.068 65.455 119.511 73.4075Z" fill="#40403F"/>
<g style="mix-blend-mode:multiply" opacity="0.1">
<path d="M119.511 73.4075C119.511 73.4075 115.471 142.166 186.779 125.506V98.9982C186.779 98.9982 156.583 106.658 150.324 80.4798C148.583 73.2138 143.013 67.3956 135.756 65.6624C130.222 64.3505 124.068 65.455 119.511 73.4075Z" fill="black"/>
</g>
<path d="M127.091 148.677L157.52 148.586V133.177C157.751 112.232 137.327 96.0789 109.316 100.018L102.317 125.772C102.317 125.772 131.525 124.545 127.091 148.677Z" fill="#7B7B7B"/>
<path style="mix-blend-mode:multiply" opacity="0.1" d="M127.091 148.677L157.52 148.586V133.177C157.751 112.232 137.327 96.0789 109.316 100.018L102.317 125.772C102.317 125.772 131.525 124.545 127.091 148.677Z" fill="url(#paint2_linear_16_626)"/>
<path d="M130.953 135.886L130.759 136.198L133.691 138.034L133.885 137.722L130.953 135.886ZM130.953 129.249L130.759 129.56L133.691 131.395L133.885 131.084L130.953 129.249ZM130.953 143.597L130.759 143.908L133.691 145.744L133.885 145.433L130.953 143.597ZM127.326 115.984L125.493 118.921L125.804 119.115L127.636 116.178L127.326 115.984ZM120.699 115.984L118.866 118.921L119.177 119.115L121.009 116.179L120.699 115.984ZM128.788 122.412L128.594 122.724L131.525 124.559L131.719 124.248L128.788 122.412Z" fill="#BCBCBC"/>
<path d="M139.064 30.0291C139.064 30.0291 157.723 36.3639 155.79 75.9802C155.79 75.9802 147.895 78.2232 139.064 30.0291Z" fill="#7B7B7B"/>
<path d="M131.169 52.5985L143.556 35.5143C153.296 25.0707 174.361 38.2671 166.534 52.9078L157.998 64.9928C154.561 69.8561 148.231 69.4924 143.281 66.6139L143.023 67.4703C142.198 70.1891 138.188 69.4041 138.188 69.4041C126.673 66.7635 131.169 52.5985 131.169 52.5985Z" fill="white"/>
<path d="M145.021 44.7786L137.533 48.7684L135.098 47.1813L139.189 41.5364L145.021 44.7786Z" fill="#40403F"/>
<path d="M143.281 66.6105L143.023 67.4669C142.899 67.894 142.665 68.2808 142.344 68.5885L138.555 62.5799L143.281 66.6105Z" fill="#B5E0DA"/>
<path d="M153.086 62.274C153.135 62.2891 153.187 62.2884 153.236 62.2719C153.285 62.2554 153.327 62.2241 153.357 62.1823L158.446 55.2188C158.481 55.1656 158.495 55.1012 158.485 55.0383C158.475 54.9753 158.442 54.9185 158.392 54.8789C158.339 54.8428 158.274 54.8284 158.211 54.8385C158.148 54.8486 158.091 54.8825 158.053 54.9333L152.963 61.9002C152.927 61.953 152.913 62.0177 152.923 62.081C152.933 62.1443 152.967 62.2013 153.018 62.2401C153.038 62.2554 153.061 62.2666 153.086 62.274Z" fill="#40403F"/>
<path d="M163.026 57.8764L145.021 44.7786L164.594 55.6572L163.026 57.8764Z" fill="#B5E0DA"/>
<path d="M134.158 102.567C127.759 103.708 121.014 108.47 114.243 113.568L63.8643 113.639C45.2994 63.6538 48.6412 28.4794 116.485 25.8286C138.941 38.9638 148.601 56.4626 150.636 80.0686C150.963 83.9815 150.05 87.8981 148.029 91.2624C146.008 94.6268 142.98 97.268 139.376 98.8113C133.713 101.272 134.161 102.567 134.161 102.567" fill="#40403F"/>
<path d="M126.338 97.4689L125.683 97.129C125.727 97.0406 127.746 95.1953 129.73 92.9115C132.38 89.8528 135.406 88.0143 138.49 87.5589L138.595 88.2861C134.931 88.8265 132.061 91.3448 130.297 93.3839C128.366 95.6065 126.348 97.4451 126.338 97.4689ZM41.6387 124.986V156.28H62.8397C84.9669 156.28 102.908 139.09 102.908 117.877H65.8185C65.8185 117.877 66.6327 124.986 41.6387 124.986Z" fill="#7B7B7B"/>
<path opacity="0.6" d="M41.6387 124.986V156.28H62.8397C84.9669 156.28 102.908 139.09 102.908 117.877H65.8185C65.8185 117.877 66.6327 124.986 41.6387 124.986Z" fill="url(#paint3_linear_16_626)"/>
<path d="M54.3579 136.042L55.9219 133.646L56.1866 133.806L54.6225 136.202L54.3579 136.042ZM60.0101 136.042L61.5742 133.646L61.8388 133.806L60.2748 136.202L60.0101 136.042ZM47.793 136.042L49.357 133.646L49.6217 133.806L48.0576 136.202L47.793 136.042ZM72.9635 131.094L70.4631 129.595L70.6293 129.343L73.1297 130.839L72.9635 131.094ZM72.9635 125.68L70.4631 124.181L70.6293 123.926L73.1297 125.425L72.9635 125.68ZM65.8286 134.275L67.3927 131.879L67.6573 132.038L66.0933 134.434L65.8286 134.275ZM34.0559 157.758H45.9474V123.471H13.2315V172.379C17.7811 172.378 22.2203 170.974 25.946 168.359C29.6716 165.743 32.5032 162.042 34.0559 157.758Z" fill="#BCBCBC"/>
<path d="M15.2434 122.964H10.2086V137.578C10.609 137.578 10.9929 137.738 11.276 138.021C11.5591 138.305 11.7182 138.689 11.7184 139.09V145.14C11.7184 145.541 11.5594 145.926 11.2764 146.21C10.9933 146.494 10.6093 146.654 10.2086 146.655V172.875H15.2434V122.964Z" fill="#40403F"/>
<path d="M12.7261 126.332V126.672C12.7261 126.762 12.6903 126.849 12.6267 126.912C12.5631 126.976 12.4768 127.012 12.3868 127.012H10.2087V125.992H12.3868C12.4314 125.992 12.4755 126.001 12.5167 126.018C12.5579 126.035 12.5954 126.06 12.6269 126.092C12.6584 126.123 12.6834 126.161 12.7004 126.202C12.7174 126.243 12.7261 126.288 12.7261 126.332ZM12.7261 130.869V131.209C12.7261 131.254 12.7174 131.298 12.7003 131.339C12.6833 131.381 12.6583 131.418 12.6268 131.45C12.5953 131.481 12.5578 131.506 12.5167 131.523C12.4755 131.54 12.4313 131.549 12.3868 131.549H10.2087V130.529H12.3868C12.4314 130.529 12.4755 130.538 12.5167 130.555C12.5579 130.572 12.5954 130.597 12.6269 130.629C12.6584 130.66 12.6834 130.698 12.7004 130.739C12.7174 130.78 12.7261 130.825 12.7261 130.869ZM12.7261 135.406V135.746C12.7261 135.836 12.6903 135.923 12.6267 135.986C12.5631 136.05 12.4768 136.086 12.3868 136.086H10.2087V135.066H12.3868C12.4314 135.066 12.4755 135.075 12.5167 135.092C12.5579 135.109 12.5954 135.134 12.6269 135.166C12.6584 135.197 12.6834 135.235 12.7004 135.276C12.7174 135.317 12.7261 135.362 12.7261 135.406ZM12.7294 149.021V149.361C12.7294 149.451 12.6937 149.537 12.6301 149.601C12.5664 149.665 12.4802 149.7 12.3902 149.7H10.2121V148.681H12.3902C12.4348 148.681 12.4789 148.689 12.5201 148.707C12.5613 148.724 12.5988 148.749 12.6303 148.78C12.6618 148.812 12.6868 148.849 12.7038 148.891C12.7208 148.932 12.7295 148.976 12.7294 149.021ZM12.7261 153.558V153.898C12.7261 153.988 12.6903 154.074 12.6267 154.138C12.5631 154.202 12.4768 154.237 12.3868 154.237H10.2222V153.218H12.4004C12.488 153.221 12.571 153.258 12.6318 153.322C12.6926 153.385 12.7264 153.47 12.7261 153.558ZM12.7159 158.098V158.438C12.7159 158.528 12.6801 158.614 12.6165 158.678C12.5529 158.742 12.4666 158.778 12.3766 158.778H10.1985V157.758H12.3766C12.4212 157.758 12.4653 157.767 12.5065 157.784C12.5477 157.801 12.5852 157.826 12.6167 157.858C12.6482 157.889 12.6732 157.927 12.6902 157.968C12.7072 158.009 12.716 158.053 12.7159 158.098ZM12.7294 162.635V162.975C12.7295 163.02 12.7207 163.064 12.7037 163.105C12.6867 163.146 12.6617 163.184 12.6302 163.215C12.5987 163.247 12.5612 163.272 12.5201 163.289C12.4789 163.306 12.4347 163.315 12.3902 163.315H10.2121V162.295H12.3902C12.4348 162.295 12.4789 162.304 12.5201 162.321C12.5613 162.338 12.5988 162.363 12.6303 162.395C12.6618 162.426 12.6868 162.464 12.7038 162.505C12.7208 162.546 12.7295 162.59 12.7294 162.635ZM12.7261 167.172V167.512C12.726 167.602 12.6902 167.688 12.6266 167.752C12.563 167.816 12.4767 167.852 12.3868 167.852H10.2087V166.832H12.3868C12.4314 166.832 12.4755 166.841 12.5167 166.858C12.5579 166.875 12.5954 166.9 12.6269 166.932C12.6584 166.963 12.6834 167.001 12.7004 167.042C12.7174 167.083 12.7261 167.127 12.7261 167.172Z" fill="#BCBCBC"/>
<path d="M31.6031 153.976V148.429C31.6139 147.768 31.8839 147.137 32.3548 146.673C32.8257 146.209 33.4599 145.949 34.1205 145.949C34.781 145.949 35.4152 146.209 35.8861 146.673C36.357 147.137 36.627 147.768 36.6378 148.429V153.976C36.6376 154.644 36.3723 155.286 35.9002 155.758C35.4282 156.231 34.788 156.497 34.1205 156.497C33.4529 156.497 32.8126 156.231 32.3406 155.759C31.8685 155.286 31.6032 154.644 31.6031 153.976ZM36.1323 148.429C36.1487 148.02 36.0405 147.615 35.822 147.269C35.6035 146.922 35.2851 146.65 34.9089 146.489C34.5326 146.328 34.1162 146.286 33.7152 146.368C33.3143 146.45 32.9478 146.653 32.6646 146.949C32.4768 147.145 32.3304 147.377 32.2343 147.632C32.1381 147.886 32.0942 148.158 32.1052 148.429V153.976C32.1285 154.495 32.3508 154.985 32.7259 155.344C33.101 155.704 33.5999 155.904 34.1188 155.904C34.6376 155.904 35.1366 155.704 35.5116 155.344C35.8867 154.985 36.109 154.495 36.1323 153.976V148.429ZM37.8965 154.227V148.681C37.8776 148.171 38.0139 147.667 38.2873 147.236C38.5607 146.805 38.9584 146.467 39.4277 146.268C39.8177 146.102 40.2431 146.037 40.6647 146.08C41.0862 146.122 41.4902 146.271 41.8392 146.512C42.1882 146.752 42.4709 147.077 42.6612 147.456C42.8515 147.836 42.9433 148.257 42.9279 148.681V154.227C42.9468 154.737 42.8106 155.241 42.5371 155.672C42.2637 156.103 41.866 156.441 41.3968 156.64C41.0068 156.806 40.5813 156.871 40.1598 156.828C39.7383 156.785 39.3343 156.637 38.9853 156.396C38.6363 156.156 38.3535 155.831 38.1632 155.452C37.9729 155.072 37.8812 154.651 37.8965 154.227ZM42.4258 148.681C42.4043 148.16 42.1827 147.668 41.8075 147.307C41.4322 146.947 40.9323 146.745 40.4122 146.745C39.892 146.745 39.3919 146.946 39.0166 147.307C38.6413 147.668 38.4199 148.16 38.3987 148.681V154.227C38.3873 154.499 38.4311 154.77 38.5273 155.025C38.6235 155.279 38.7702 155.512 38.9585 155.708C39.2418 156.004 39.6082 156.206 40.0091 156.288C40.4099 156.37 40.8262 156.328 41.2025 156.167C41.5789 156.006 41.8975 155.734 42.116 155.388C42.3345 155.042 42.4426 154.637 42.4258 154.227V148.681ZM19.5216 167.947V169.741C19.5217 169.987 19.4734 170.23 19.3797 170.457C19.2859 170.683 19.1485 170.89 18.9752 171.063C18.8019 171.237 18.5962 171.374 18.3698 171.468C18.1434 171.562 17.9007 171.611 17.6556 171.61H13.9847V166.078H17.6556C17.9007 166.078 18.1434 166.126 18.3698 166.22C18.5963 166.314 18.802 166.451 18.9753 166.625C19.1486 166.799 19.286 167.005 19.3798 167.231C19.4735 167.458 19.5217 167.701 19.5216 167.947ZM14.7854 123.423L15.1417 123.066L20.3562 128.276C22.8516 128.305 25.2381 129.305 27.011 131.064C28.7838 132.823 29.804 135.204 29.8558 137.704H45.9644V138.207H29.3401V137.894C29.3374 135.477 28.3779 133.161 26.672 131.452C24.9662 129.743 22.6533 128.782 20.2409 128.779H20.1391L14.7854 123.423Z" fill="#40403F"/>
<g style="mix-blend-mode:multiply" opacity="0.1">
<path d="M133.734 39.6604C133.734 39.6604 136.94 50.1346 125.489 66.4848C116.254 79.6675 141.401 110.149 150.595 80.6837C148.94 55.5416 140.696 44.1295 133.734 39.6604Z" fill="black"/>
</g>
<path d="M126.965 33.0062L139.064 30.0291C143.271 52.6869 150.063 74.1484 155.79 75.9802L133.099 80.2997C133.099 80.2997 122.606 74.2775 133.306 55.8985C136.21 50.9095 136.485 44.7344 133.734 39.6605C133.537 39.3002 127.193 33.3596 126.965 33.0062Z" fill="#40403F"/>
<path d="M150.297 70.2571L132.495 75.9972C132.495 75.9972 100.221 87.4059 107.522 114.89" stroke="#DDDEDE" stroke-miterlimit="10"/>
<path d="M118.996 127.342L120.502 125.829C120.596 125.743 120.671 125.638 120.721 125.521C120.771 125.404 120.796 125.277 120.794 125.15V58.5051C120.794 58.2649 120.7 58.0342 120.531 57.8638C120.447 57.7796 120.347 57.7127 120.237 57.6671C120.128 57.6214 120.01 57.5978 119.891 57.5977H35.7523C35.5203 57.598 35.2972 57.6867 35.1281 57.8458L33.6251 59.3547C33.5269 59.4387 33.4479 59.5429 33.3935 59.6602C33.339 59.7775 33.3104 59.9051 33.3096 60.0344V126.703C33.3105 126.943 33.4062 127.173 33.5759 127.343C33.7456 127.513 33.9755 127.609 34.2154 127.61H118.355C118.474 127.61 118.592 127.587 118.702 127.54C118.812 127.494 118.912 127.427 118.996 127.342Z" fill="#EAEBEB"/>
<path d="M120.797 124.704V58.9639C120.797 58.2094 120.187 57.5977 119.433 57.5977H36.1968C35.835 57.5977 35.4881 57.7417 35.2324 57.9979C34.9766 58.2541 34.8329 58.6016 34.8329 58.9639V124.704C34.8329 125.459 35.4436 126.071 36.1968 126.071H119.433C120.187 126.071 120.797 125.459 120.797 124.704Z" fill="white"/>
<path d="M116.651 122.614V61.404H57.2722V122.614H116.651Z" fill="#B5E0DA"/>
<path d="M44.7837 66.9504L45.0314 65.2511L46.5818 64.4831C46.6256 64.4634 46.6606 64.4283 46.6802 64.3845C46.6995 64.3463 46.7069 64.3032 46.7013 64.2607C46.6957 64.2183 46.6775 64.1785 46.649 64.1466C46.6303 64.1252 46.6074 64.1079 46.5818 64.0956L45.0314 63.3276L44.7837 61.6283C44.7764 61.5805 44.7537 61.5364 44.7192 61.5026C44.6777 61.4638 44.6233 61.442 44.5666 61.4414C44.5088 61.4432 44.4539 61.4676 44.4139 61.5094L43.2061 62.7498L41.5097 62.4542C41.4708 62.444 41.4299 62.444 41.391 62.4542C41.3533 62.4702 41.3205 62.496 41.296 62.5289C41.2727 62.5607 41.2586 62.5984 41.2553 62.6377C41.2542 62.679 41.2635 62.7199 41.2824 62.7566L42.0865 64.2893L41.2824 65.8221C41.2623 65.8577 41.2527 65.8985 41.2549 65.9394C41.257 65.9803 41.2708 66.0198 41.2947 66.0532C41.3187 66.0864 41.3517 66.1121 41.3898 66.1272C41.4279 66.1422 41.4695 66.146 41.5097 66.1381L43.2061 65.8425L44.4139 67.0829C44.4478 67.1176 44.4916 67.14 44.5394 67.1475C44.5685 67.1514 44.5981 67.1494 44.6263 67.1414C44.6546 67.1335 44.6809 67.1198 44.7036 67.1013C44.7265 67.0829 44.7454 67.06 44.7592 67.0341C44.773 67.0081 44.7813 66.9797 44.7837 66.9504Z" fill="#FADD00"/>
<path d="M54.4224 61.4006C54.5322 61.4006 54.6374 61.4443 54.7151 61.5221C54.7927 61.5998 54.8363 61.7053 54.8363 61.8153V74.196C54.8363 74.3057 54.7925 74.4114 54.7152 74.4893C54.6374 74.5669 54.5322 74.6105 54.4224 74.6106H49.4792C49.3693 74.6106 49.2641 74.5667 49.1864 74.4893C49.109 74.4114 49.0654 74.3059 49.0653 74.196V61.8153C49.0653 61.7053 49.1089 61.5998 49.1865 61.5221C49.2642 61.4443 49.3694 61.4006 49.4792 61.4006H54.4224Z" fill="#F2F9F8"/>
<path d="M48.9228 74.196V61.8153C48.9224 61.7046 48.9547 61.5964 49.0157 61.5042C49.0767 61.412 49.1636 61.34 49.2655 61.2973C49.3333 61.2691 49.4059 61.2545 49.4792 61.2545H54.4224C54.5708 61.2548 54.713 61.3139 54.8179 61.419C54.9228 61.5241 54.9819 61.6666 54.9822 61.8153V74.196C54.9819 74.3446 54.9228 74.4871 54.8179 74.5922C54.713 74.6973 54.5708 74.7565 54.4224 74.7567H49.4792C49.3688 74.7566 49.2609 74.7235 49.1692 74.6619C49.0775 74.6002 49.0062 74.5127 48.9642 74.4104C48.9365 74.3424 48.9224 74.2695 48.9228 74.196ZM54.6904 61.8153C54.6902 61.7441 54.6619 61.6759 54.6117 61.6256C54.5615 61.5753 54.4934 61.547 54.4224 61.5468H49.4792C49.4082 61.547 49.3401 61.5753 49.2899 61.6256C49.2397 61.6759 49.2114 61.7441 49.2112 61.8153V74.196C49.2114 74.2671 49.2397 74.3353 49.2899 74.3856C49.3401 74.4359 49.4082 74.4643 49.4792 74.4645H54.4224C54.4934 74.4643 54.5615 74.4359 54.6117 74.3856C54.6619 74.3353 54.6902 74.2671 54.6904 74.196V61.8153Z" fill="#00AD8D"/>
<path d="M54.4224 76.4662C54.5317 76.4659 54.6366 76.509 54.7142 76.5861C54.7918 76.6632 54.8357 76.7679 54.8363 76.8774V89.2615C54.8361 89.3714 54.7926 89.4768 54.7152 89.5548C54.6374 89.6323 54.5321 89.6759 54.4224 89.6761H49.4792C49.3695 89.6759 49.2642 89.6323 49.1864 89.5548C49.109 89.4768 49.0655 89.3714 49.0653 89.2615V76.8842C49.066 76.7747 49.11 76.67 49.1875 76.593C49.2651 76.5159 49.37 76.4728 49.4792 76.473L54.4224 76.4662Z" fill="#F2F9F8"/>
<path d="M48.9228 89.2683V76.8842C48.9228 76.7363 48.9815 76.5946 49.0856 76.4899C49.1901 76.3856 49.3316 76.3268 49.4792 76.3268H54.4224C54.5703 76.3268 54.7121 76.3854 54.817 76.4899C54.9219 76.5943 54.9813 76.736 54.9822 76.8842V89.2683C54.982 89.3789 54.9491 89.487 54.8875 89.5788C54.826 89.6707 54.7386 89.7421 54.6365 89.7842C54.5686 89.812 54.4957 89.826 54.4224 89.8256H49.4792C49.406 89.826 49.3335 89.8119 49.2658 89.784C49.1981 89.7562 49.1366 89.7151 49.0849 89.6633C49.0331 89.6115 48.9921 89.5499 48.9643 89.4821C48.9365 89.4143 48.9224 89.3416 48.9228 89.2683ZM54.6904 76.8842C54.6904 76.8491 54.6834 76.8144 54.6698 76.782C54.6563 76.7496 54.6365 76.7203 54.6116 76.6956C54.5867 76.671 54.5571 76.6515 54.5246 76.6384C54.4922 76.6252 54.4574 76.6187 54.4224 76.6191H49.4792C49.4087 76.6191 49.341 76.6469 49.2909 76.6965C49.2407 76.7461 49.2121 76.8136 49.2112 76.8842V89.2683C49.2122 89.3392 49.2407 89.407 49.2906 89.4572C49.3408 89.5072 49.4084 89.5358 49.4792 89.5368H54.4224C54.4934 89.5366 54.5615 89.5082 54.6117 89.4579C54.6619 89.4076 54.6902 89.3394 54.6904 89.2683V76.8842Z" fill="#00AD8D"/>
<path d="M54.4224 91.1986C54.5317 91.1984 54.6366 91.2415 54.7142 91.3186C54.7918 91.3957 54.8357 91.5004 54.8363 91.6099V103.994C54.8361 104.104 54.7926 104.209 54.7152 104.287C54.6374 104.365 54.5321 104.408 54.4224 104.409H49.4792C49.4248 104.409 49.3709 104.398 49.3207 104.377C49.2704 104.357 49.2248 104.326 49.1864 104.287C49.109 104.209 49.0655 104.104 49.0653 103.994V91.6099C49.0662 91.5005 49.1102 91.3959 49.1877 91.3189C49.2653 91.2419 49.37 91.1986 49.4792 91.1986H54.4224Z" fill="#F2F9F8"/>
<path d="M48.9228 103.994V91.6099C48.9228 91.462 48.9815 91.3203 49.0856 91.2156C49.1901 91.1113 49.3316 91.0525 49.4792 91.0525H54.4224C54.5702 91.0526 54.7121 91.1112 54.8169 91.2157C54.9218 91.3201 54.9812 91.4618 54.9822 91.6099V103.994C54.982 104.105 54.9491 104.213 54.8875 104.305C54.826 104.396 54.7386 104.468 54.6365 104.51C54.5686 104.538 54.4957 104.552 54.4224 104.551H49.4792C49.406 104.552 49.3335 104.538 49.2658 104.51C49.1981 104.482 49.1366 104.441 49.0849 104.389C49.0331 104.337 48.9921 104.276 48.9643 104.208C48.9365 104.14 48.9224 104.067 48.9228 103.994ZM54.6904 91.6099C54.6905 91.5747 54.6837 91.5399 54.6702 91.5075C54.6568 91.475 54.637 91.4456 54.612 91.4209C54.587 91.3962 54.5574 91.3768 54.5248 91.3637C54.4923 91.3506 54.4574 91.3442 54.4224 91.3448H49.4792C49.4087 91.3448 49.341 91.3726 49.2909 91.4222C49.2407 91.4718 49.2121 91.5393 49.2112 91.6099V103.994C49.2122 104.065 49.2407 104.133 49.2906 104.183C49.3408 104.233 49.4084 104.261 49.4792 104.262H54.4224C54.4934 104.262 54.5615 104.234 54.6117 104.184C54.6619 104.133 54.6902 104.065 54.6904 103.994V91.6099Z" fill="#00AD8D"/>
<path d="M44.3257 89.5878V69.5298H42.5988V89.5878H44.3257Z" fill="#D2D2D1"/>
<path d="M105.089 79.8069C105.089 79.8069 103.837 77.2988 96.0068 77.6115C91.6573 77.7882 90.7888 76.5069 90.8736 75.3379C90.9218 74.8339 91.14 74.3614 91.4921 73.9981C91.8442 73.6349 92.3093 73.4026 92.8108 73.3396C96.9058 72.7686 110.198 71.7559 110.728 82.631L105.089 79.8069ZM77.4079 79.6743L74.7107 74.162H71.5691L64.8312 80.0244L77.4079 79.6743Z" fill="#018A72"/>
<path d="M91.7048 74.162H74.7108L75.6064 75.9938H91.7048V74.162Z" fill="#018A72"/>
<path d="M94.9958 73.6862C94.999 73.5668 95.0316 73.45 95.0908 73.3463C95.1718 73.2204 95.285 73.1183 95.4186 73.0508C95.5522 72.9833 95.7014 72.9528 95.8507 72.9623C95.8653 72.9619 95.8798 72.9644 95.8935 72.9695C95.9207 72.9804 95.9425 73.0016 95.9542 73.0286C95.9651 73.0559 95.9651 73.0863 95.9542 73.1135C95.9425 73.1405 95.9207 73.1618 95.8935 73.1727C95.8798 73.1778 95.8653 73.1802 95.8507 73.1798C95.7394 73.1701 95.6276 73.1908 95.5271 73.2399C95.4267 73.289 95.3416 73.3646 95.2808 73.4585C95.2377 73.5322 95.2151 73.6161 95.2151 73.7015C95.2151 73.7869 95.2377 73.8708 95.2808 73.9445C95.3416 74.0383 95.4268 74.1138 95.5272 74.1629C95.6276 74.212 95.7394 74.2328 95.8507 74.2232C95.8948 74.2232 102.11 73.1662 106.321 76.2147C108.377 77.6998 109.632 79.9122 110.053 82.7874C110.053 82.8142 110.045 82.8404 110.027 82.8611C110.015 82.8763 109.998 82.8876 109.979 82.8939C109.96 82.9002 109.94 82.9011 109.92 82.8967C109.901 82.8922 109.883 82.8825 109.869 82.8687C109.854 82.8548 109.844 82.8373 109.839 82.818C109.425 80.004 108.2 77.8426 106.195 76.3914C102.059 73.3973 95.9322 74.4271 95.8711 74.4373C95.7185 74.4501 95.5653 74.4211 95.4279 74.3535C95.2904 74.2858 95.1739 74.1821 95.0908 74.0532C95.0271 73.9415 94.9943 73.8148 94.9958 73.6862Z" fill="#B5E0DA"/>
<path d="M105.089 79.4942C105.089 79.4942 112.919 80.7483 113.232 88.592C113.544 96.4357 113.232 100.68 113.232 100.68C113.232 100.68 113.265 110.553 90.6802 110.553C69.3808 110.553 62.8058 103.654 61.5505 94.2403C60.2952 84.8265 62.8058 79.4942 67.8168 78.2402C71.4606 77.3294 81.6014 82.3184 105.089 79.4942Z" fill="#01AC8E"/>
<path d="M101.693 97.2208V97.197C101.698 97.1683 101.714 97.1427 101.737 97.1255C101.761 97.1084 101.79 97.1011 101.818 97.1052C108.265 98.0262 113.194 91.5793 113.242 91.5147C113.259 91.4919 113.285 91.4767 113.313 91.4723C113.342 91.4679 113.371 91.4745 113.394 91.4909C113.417 91.5086 113.432 91.5344 113.436 91.563C113.44 91.5917 113.432 91.6208 113.415 91.6438C113.367 91.7118 108.353 98.2607 101.788 97.3227C101.763 97.3194 101.739 97.3075 101.722 97.2889C101.705 97.2703 101.694 97.2462 101.693 97.2208ZM101.693 100.745C101.691 100.737 101.691 100.729 101.693 100.721C101.696 100.707 101.701 100.694 101.709 100.682C101.717 100.67 101.728 100.66 101.74 100.652C101.752 100.644 101.765 100.638 101.779 100.636C101.793 100.633 101.808 100.633 101.822 100.636C107.976 101.941 113.198 99.2021 113.248 99.1715C113.274 99.1589 113.304 99.1564 113.332 99.1646C113.359 99.1728 113.383 99.191 113.398 99.2157C113.411 99.2419 113.413 99.2722 113.404 99.3002C113.396 99.3281 113.376 99.3515 113.35 99.3652C113.299 99.3924 108.007 102.169 101.774 100.85C101.751 100.844 101.73 100.831 101.716 100.812C101.701 100.793 101.693 100.769 101.693 100.745Z" fill="#B5E0DA"/>
<path d="M93.4249 97.3125C93.4249 97.3125 65.5165 100.711 61.2485 88.9726C61.2092 90.7339 61.3113 92.4954 61.5538 94.2403C61.692 95.3388 61.9189 96.4242 62.2324 97.4859C65.8762 100.181 74.514 103.906 93.6454 102.244L93.4249 97.3125Z" fill="#018A72"/>
<path d="M93.3232 98.468C93.3232 93.7339 94.4631 88.3881 98.6361 84.6667C100.548 82.9566 102.877 81.7841 105.388 81.2682C105.416 81.2642 105.446 81.2718 105.469 81.2893C105.492 81.3068 105.507 81.3329 105.511 81.3617C105.515 81.3905 105.508 81.4198 105.49 81.4431C105.473 81.4663 105.447 81.4817 105.418 81.4857C102.945 81.9934 100.651 83.1511 98.7718 84.8401C95.8677 87.4331 92.6412 92.558 93.7676 102.227C93.7676 102.302 95.1247 110.07 104.835 108.551C104.849 108.549 104.863 108.549 104.878 108.553C104.892 108.556 104.905 108.562 104.917 108.571C104.928 108.579 104.938 108.59 104.946 108.603C104.953 108.615 104.958 108.629 104.96 108.643C104.963 108.657 104.962 108.672 104.959 108.686C104.955 108.7 104.949 108.713 104.941 108.724C104.932 108.735 104.921 108.745 104.909 108.752C104.896 108.759 104.883 108.764 104.869 108.765C102.005 109.214 98.0458 109.105 95.4436 106.104C94.4932 105.006 93.8412 103.681 93.5505 102.257C93.4028 101 93.3269 99.7344 93.3232 98.468ZM62.402 84.3643C62.402 84.342 62.4088 84.3202 62.4215 84.302C62.4343 84.2837 62.4524 84.2699 62.4733 84.2623C62.4864 84.2569 62.5005 84.2541 62.5147 84.2542C62.536 84.2546 62.5567 84.2614 62.5742 84.2738C62.5916 84.2861 62.6049 84.3035 62.6124 84.3235C65.1196 90.7806 81.0483 90.5631 82.5751 90.5257C82.039 84.942 87.1111 80.2555 87.1654 80.2113C87.1806 80.1942 87.2008 80.1825 87.2231 80.1776C87.2454 80.1728 87.2687 80.1752 87.2896 80.1845C87.307 80.192 87.3222 80.204 87.3335 80.2193C87.3449 80.2346 87.352 80.2525 87.3542 80.2715C87.3564 80.2904 87.3536 80.3095 87.3461 80.327C87.3385 80.3445 87.3265 80.3597 87.3113 80.371C86.3663 81.2835 85.5306 82.3031 84.821 83.4093C83.7252 85.1085 82.4869 87.739 82.8058 90.6209V90.7364H82.6904C79.6442 90.8031 76.5977 90.6212 73.581 90.1927C67.2875 89.2513 63.525 87.304 62.3851 84.4152C62.3868 84.3972 62.3926 84.3797 62.402 84.3643Z" fill="#B5E0DA"/>
<path d="M65.9881 96.9081C65.983 96.8915 65.983 96.8738 65.9881 96.8572C65.9945 96.8444 66.0034 96.833 66.0142 96.8237C66.025 96.8144 66.0376 96.8073 66.0512 96.8029C66.0647 96.7984 66.079 96.7967 66.0933 96.7979C66.1075 96.7991 66.1213 96.803 66.134 96.8096C76.6276 102.376 93.2282 100.099 93.3944 100.076C93.4125 100.073 93.4309 100.075 93.448 100.081C93.4652 100.088 93.4805 100.098 93.4926 100.112C93.5048 100.125 93.5134 100.142 93.5177 100.159C93.522 100.177 93.5218 100.196 93.5172 100.214C93.5094 100.242 93.4909 100.265 93.4656 100.28C93.4531 100.287 93.4392 100.291 93.4249 100.293C93.2587 100.317 76.5903 102.604 66.0322 97.0033C66.0174 96.9925 66.0056 96.9781 65.9979 96.9614C65.9902 96.9448 65.9868 96.9264 65.9881 96.9081Z" fill="#B5E0DA"/>
<path d="M86.9584 90.0602C86.9523 88.0929 87.4524 86.1573 88.4105 84.4401C89.3683 82.7226 90.7518 81.2814 92.4275 80.2555H92.4784C94.0322 80.2351 95.6438 80.1773 97.2689 80.0856H97.5165L97.3571 80.2793C94.039 84.3303 92.3698 90.767 92.3528 90.8316L92.3325 90.9166L86.9754 90.7399V90.6379C86.9652 90.4442 86.9584 90.2573 86.9584 90.0602ZM92.4987 80.4594C90.7994 81.5118 89.4116 82.9998 88.4787 84.7696C87.5458 86.5393 87.1018 88.5265 87.1925 90.5258L92.173 90.6787C92.38 89.9106 94.0017 84.1536 97.0416 80.3133C95.4979 80.3982 93.9779 80.4526 92.4987 80.4696V80.4594Z" fill="#018A72"/>
<g style="mix-blend-mode:multiply" opacity="0.1">
<path d="M108.719 64.6462C108.719 64.6462 81.4996 100.646 96.7362 126.084L96.3528 127.61H83.4809C83.4809 127.61 73.6522 65.2851 108.719 64.6462Z" fill="black"/>
</g>
<g style="mix-blend-mode:multiply" opacity="0.1">
<path d="M55.9423 123.386V128.463C55.9423 135.304 63.7455 135.304 63.7455 128.463C63.6641 135.236 71.2095 135.332 71.3045 128.555C71.3045 135.274 79.2061 135.274 79.2061 128.555C79.2061 135.274 86.6701 135.274 86.6701 128.555V123.386H55.9423Z" fill="black"/>
</g>
<path d="M87.5318 109.102H53.486V126.322H87.5318V109.102Z" fill="white"/>
<path d="M53.5098 118.176H61.2723V126.856C61.2723 127.887 60.8635 128.876 60.1354 129.605C59.775 129.966 59.3472 130.252 58.8763 130.448C58.4054 130.643 57.9007 130.744 57.391 130.744C56.8813 130.744 56.3766 130.643 55.9057 130.448C55.4348 130.252 55.007 129.966 54.6467 129.605C54.2862 129.244 54.0003 128.815 53.8052 128.343C53.6101 127.872 53.5097 127.366 53.5098 126.856V118.176ZM62.2562 118.176H70.0221V126.856C70.0221 127.887 69.6132 128.876 68.8852 129.605C68.5248 129.966 68.097 130.252 67.6261 130.448C67.1552 130.643 66.6505 130.744 66.1408 130.744C65.6311 130.744 65.1264 130.643 64.6555 130.448C64.1846 130.252 63.7568 129.966 63.3964 129.605C63.036 129.244 62.7501 128.815 62.555 128.343C62.3599 127.872 62.2595 127.366 62.2596 126.856V118.176H62.2562ZM70.9992 118.176H78.7651V126.856C78.7651 127.887 78.3562 128.876 77.6282 129.605C77.2678 129.966 76.84 130.252 76.3691 130.448C75.8982 130.643 75.3935 130.744 74.8838 130.744C74.3741 130.744 73.8694 130.643 73.3985 130.448C72.9276 130.252 72.4998 129.966 72.1395 129.605C71.779 129.244 71.4931 128.815 71.298 128.343C71.1029 127.872 71.0025 127.366 71.0026 126.856V118.176H70.9992ZM79.7456 118.176H87.5115V126.856C87.5115 127.887 87.1026 128.876 86.3746 129.605C86.0142 129.966 85.5864 130.252 85.1155 130.448C84.6446 130.643 84.1399 130.744 83.6302 130.744C83.1205 130.744 82.6158 130.643 82.1449 130.448C81.674 130.252 81.2462 129.966 80.8858 129.605C80.5254 129.244 80.2395 128.815 80.0444 128.343C79.8493 127.872 79.7489 127.366 79.7489 126.856V118.176H79.7456Z" fill="white"/>
<g style="mix-blend-mode:multiply" opacity="0.1">
<path d="M53.5097 118.176L53.486 109.102H87.5318L87.5114 118.176C87.5114 118.176 69.7438 115.209 53.5097 118.176Z" fill="black"/>
</g>
<path d="M116.485 25.8286C116.485 25.8286 26.9007 18.8956 51.145 115.287C65.9508 112.64 77.1094 110.713 88.9974 113.697C88.9974 113.697 79.776 69.7507 107.552 62.2842C116.712 59.8271 124.102 55.7014 126.297 46.4744C127.973 39.443 126.572 31.606 116.485 25.8286Z" fill="#40403F"/>
<path d="M116.729 27.9424C116.729 27.9424 127.586 38.5899 118.721 55.1304" stroke="#DDDEDE" stroke-miterlimit="10"/>
<path d="M142.212 87.1443C142.85 87.338 143.508 87.5181 144.197 87.6846C149.913 89.0678 156.221 84.6532 162.935 74.5664C166.145 69.6392 168.939 64.4521 171.288 59.0591L170.829 58.8654C170.697 59.1814 157.476 90.3864 144.312 87.1986C135.667 85.1085 131.081 80.8638 129.442 73.4313C127.803 65.9988 128.947 54.777 133.174 37.0232L132.689 36.9111C128.451 54.7362 127.301 66.0362 128.957 73.5401C130.514 80.5885 134.636 84.8469 142.212 87.1443Z" fill="#40403F"/>
<path d="M123.552 32.8465L179.192 63.7728L170.219 50.624L172.824 39.4531C172.911 39.092 172.903 38.7146 172.801 38.3574C172.699 38.0003 172.508 37.6754 172.244 37.4141C166.701 31.8086 159.743 27.8151 152.112 25.8592C151.779 25.7809 151.433 25.783 151.102 25.8651C150.77 25.9472 150.463 26.1071 150.205 26.3316L141.221 34.1481L123.552 32.8465Z" fill="#018A72"/>
<path d="M141.302 34.0118L141.12 34.3384L170.169 50.5479L170.351 50.2213L141.302 34.0118Z" fill="#B5E0DA"/>
<path d="M152.864 28.372L144.726 36.0594L144.982 36.3313L153.12 28.6439L152.864 28.372Z" fill="#B5E0DA"/>
<path d="M287.111 2.64063L160.4 1.28463L205.204 158.006L340.634 157.741L287.111 2.64063Z" fill="#01AC8E"/>
<path d="M287.111 2.64063L160.4 1.28463L205.204 158.006L340.634 157.741L287.111 2.64063Z" fill="#01AC8E"/>
<path d="M287.111 2.64063L160.4 1.28463L205.204 158.006L340.634 157.741L287.111 2.64063Z" fill="url(#paint4_linear_16_626)"/>
<path d="M205.204 158.006L160.4 1.28463L155.79 2.98048L201.327 157.915L205.204 158.006Z" fill="#F2F9F8"/>
<path d="M263.315 1.53272L314.26 158.006M186.779 1.53272L237.723 158.006L186.779 1.53272ZM225.045 1.53272L275.99 158.006L225.045 1.53272Z" stroke="#B5E0DA" stroke-miterlimit="10"/>
<g style="mix-blend-mode:multiply" opacity="0.1">
<path d="M352.716 172.402L307.104 81.5639L259.762 80.6905C259.323 80.6929 258.898 80.8546 258.568 81.1459V81.1663C258.458 81.2686 258.359 81.3825 258.273 81.5061L255.864 84.1706C255.627 84.5104 255.131 84.7857 255.572 86.1791L279.277 173.701L290.171 177.894H350.568C350.773 177.89 350.97 177.822 351.135 177.7C351.301 177.578 351.423 177.409 351.488 177.215L352.583 174.156C352.855 173.612 352.902 172.982 352.716 172.402Z" fill="black"/>
</g>
<path d="M157.737 9.7197C157.737 9.7197 174.456 111.335 191.172 123.481L157.737 9.7197Z" fill="#B5E0DA"/>
<path d="M369.106 178.255H294.911C294.449 178.254 293.999 178.11 293.622 177.842C293.245 177.574 292.961 177.196 292.807 176.759L260.068 82.7908C259.562 81.3396 260.129 81.0575 260.407 80.7007L263.528 77.5673L334.005 79.8239C334.467 79.8232 334.918 79.9668 335.295 80.2348C335.672 80.5028 335.957 80.8819 336.109 81.3192L371.427 174.367L370.168 177.534C370.084 177.747 369.937 177.93 369.747 178.059C369.558 178.188 369.335 178.256 369.106 178.255Z" fill="#EAEBEB"/>
<path d="M369.466 175.522H297.639C297.176 175.522 296.726 175.379 296.349 175.111C295.972 174.843 295.688 174.464 295.535 174.027L262.792 80.0584C262.675 79.722 262.64 79.3625 262.69 79.0099C262.741 78.6573 262.874 78.3218 263.08 78.0314C263.286 77.7411 263.558 77.5042 263.874 77.3407C264.19 77.1772 264.54 77.0918 264.896 77.0915H336.726C337.189 77.0918 337.639 77.2363 338.016 77.5048C338.393 77.7734 338.677 78.1527 338.83 78.5902L371.569 172.555C371.686 172.892 371.721 173.251 371.671 173.604C371.621 173.956 371.487 174.292 371.281 174.582C371.075 174.873 370.803 175.11 370.487 175.273C370.171 175.437 369.821 175.522 369.466 175.522Z" fill="white"/>
<path d="M300.17 153.214L298.059 153.14L296.902 151.281C296.872 151.231 296.825 151.192 296.77 151.172C296.737 151.158 296.702 151.152 296.667 151.153C296.631 151.154 296.596 151.163 296.565 151.178C296.533 151.194 296.504 151.216 296.481 151.243C296.458 151.27 296.441 151.301 296.431 151.335L295.732 153.408L293.696 153.965C293.639 153.98 293.589 154.013 293.554 154.061C293.512 154.12 293.494 154.193 293.503 154.265C293.512 154.337 293.548 154.403 293.605 154.448L295.281 155.807L295.176 158.006C295.173 158.058 295.185 158.108 295.208 158.154C295.232 158.199 295.268 158.237 295.311 158.265C295.355 158.289 295.404 158.301 295.454 158.299C295.503 158.296 295.55 158.28 295.589 158.251L297.327 157.017L299.301 157.823C299.356 157.841 299.416 157.841 299.471 157.823C299.539 157.801 299.596 157.753 299.629 157.689C299.662 157.626 299.668 157.551 299.647 157.483L299.043 155.362L300.37 153.663C300.404 153.614 300.424 153.556 300.427 153.496C300.43 153.425 300.405 153.355 300.356 153.302C300.308 153.25 300.241 153.218 300.17 153.214Z" fill="#FADD00"/>
<path d="M289.683 141.49C289.683 141.418 289.697 141.346 289.724 141.28C289.751 141.214 289.792 141.153 289.842 141.102C289.893 141.052 289.953 141.011 290.02 140.984C290.086 140.956 290.157 140.942 290.229 140.942H306.616C306.761 140.942 306.9 141 307.002 141.103C307.104 141.205 307.162 141.344 307.162 141.49L309.32 148.219C309.319 148.363 309.261 148.502 309.159 148.605C309.056 148.707 308.918 148.765 308.773 148.766H292.383C292.239 148.765 292.1 148.707 291.998 148.605C291.896 148.502 291.838 148.363 291.837 148.219L289.683 141.49Z" fill="#F2F9F8"/>
<path d="M308.774 148.956H292.383C292.287 148.956 292.191 148.937 292.101 148.9C292.012 148.863 291.931 148.809 291.863 148.74C291.794 148.672 291.74 148.59 291.703 148.501C291.666 148.411 291.647 148.315 291.647 148.219L289.489 141.49C289.49 141.293 289.568 141.106 289.707 140.967C289.846 140.828 290.033 140.75 290.229 140.749H306.616C306.812 140.75 306.999 140.828 307.138 140.967C307.276 141.106 307.354 141.293 307.355 141.49L309.51 148.219C309.51 148.414 309.432 148.602 309.294 148.74C309.156 148.878 308.969 148.956 308.774 148.956ZM290.229 141.14C290.183 141.139 290.137 141.149 290.095 141.167C290.053 141.185 290.015 141.211 289.983 141.245C289.951 141.278 289.927 141.318 289.911 141.361C289.895 141.404 289.888 141.45 289.89 141.496L292.044 148.225C292.044 148.316 292.08 148.402 292.143 148.466C292.207 148.529 292.293 148.565 292.383 148.565H308.774C308.818 148.565 308.862 148.557 308.904 148.54C308.945 148.523 308.982 148.498 309.014 148.466C309.045 148.434 309.07 148.397 309.087 148.356C309.104 148.314 309.113 148.27 309.113 148.225L306.958 141.496C306.961 141.45 306.954 141.404 306.938 141.361C306.922 141.318 306.897 141.278 306.865 141.245C306.834 141.211 306.795 141.185 306.753 141.167C306.711 141.149 306.665 141.139 306.619 141.14H290.229Z" fill="#00AD8D"/>
<path d="M309.32 141.49C309.32 141.418 309.334 141.346 309.361 141.28C309.388 141.214 309.429 141.153 309.479 141.102C309.53 141.052 309.59 141.011 309.657 140.984C309.723 140.956 309.794 140.942 309.866 140.942H326.253C326.398 140.942 326.537 141 326.639 141.103C326.741 141.205 326.799 141.344 326.799 141.49L328.953 148.219C328.952 148.363 328.895 148.502 328.792 148.605C328.69 148.707 328.552 148.765 328.407 148.766H312.02C311.876 148.765 311.737 148.707 311.635 148.605C311.533 148.502 311.475 148.363 311.474 148.219L309.32 141.49Z" fill="#F2F9F8"/>
<path d="M328.414 148.956H312.027C311.832 148.956 311.644 148.879 311.505 148.74C311.367 148.602 311.288 148.415 311.288 148.219L309.133 141.49C309.134 141.293 309.212 141.106 309.351 140.967C309.489 140.828 309.677 140.75 309.873 140.749H326.26C326.455 140.75 326.643 140.828 326.782 140.967C326.92 141.106 326.998 141.293 326.999 141.49L329.154 148.219C329.153 148.415 329.074 148.602 328.936 148.74C328.797 148.879 328.61 148.956 328.414 148.956ZM309.873 141.14C309.801 141.136 309.731 141.155 309.671 141.194C309.611 141.233 309.564 141.29 309.539 141.357C309.522 141.401 309.514 141.449 309.517 141.496L311.674 148.225C311.674 148.316 311.71 148.402 311.774 148.466C311.837 148.529 311.924 148.565 312.014 148.565H328.414C328.459 148.565 328.503 148.557 328.544 148.54C328.585 148.523 328.623 148.498 328.654 148.466C328.686 148.434 328.711 148.397 328.728 148.356C328.745 148.314 328.753 148.27 328.753 148.225L326.595 141.496C326.598 141.45 326.591 141.404 326.575 141.361C326.559 141.318 326.534 141.278 326.502 141.245C326.471 141.211 326.433 141.185 326.39 141.167C326.348 141.149 326.302 141.139 326.256 141.14H309.873Z" fill="#00AD8D"/>
<path d="M328.953 141.49C328.954 141.345 329.012 141.206 329.114 141.104C329.217 141.001 329.355 140.943 329.5 140.942H345.89C345.962 140.942 346.033 140.956 346.099 140.984C346.165 141.011 346.226 141.051 346.276 141.102C346.327 141.153 346.367 141.213 346.395 141.28C346.422 141.346 346.436 141.418 346.436 141.49L348.59 148.219C348.59 148.363 348.533 148.502 348.431 148.605C348.326 148.707 348.19 148.765 348.044 148.766H331.657C331.513 148.765 331.374 148.707 331.272 148.605C331.17 148.502 331.112 148.363 331.111 148.219L328.953 141.49Z" fill="#F2F9F8"/>
<path d="M348.044 148.956H331.657C331.462 148.956 331.274 148.879 331.136 148.74C330.997 148.602 330.919 148.415 330.918 148.219L328.753 141.49C328.753 141.294 328.83 141.106 328.968 140.967C329.106 140.828 329.294 140.749 329.489 140.749H345.88C346.076 140.75 346.263 140.828 346.402 140.967C346.538 141.106 346.616 141.293 346.616 141.49L348.774 148.219C348.773 148.413 348.696 148.599 348.56 148.737C348.423 148.875 348.238 148.954 348.044 148.956ZM329.5 141.14C329.454 141.139 329.408 141.149 329.366 141.167C329.323 141.185 329.285 141.211 329.254 141.245C329.222 141.278 329.197 141.318 329.181 141.361C329.165 141.404 329.158 141.45 329.16 141.496L331.315 148.225C331.315 148.316 331.35 148.402 331.414 148.466C331.478 148.529 331.564 148.565 331.654 148.565H348.041C348.085 148.565 348.13 148.557 348.171 148.54C348.212 148.522 348.25 148.497 348.282 148.466C348.343 148.402 348.38 148.315 348.38 148.225L346.226 141.496C346.229 141.45 346.222 141.404 346.205 141.361C346.189 141.318 346.165 141.279 346.134 141.245C346.068 141.179 345.979 141.141 345.886 141.14H329.5Z" fill="#00AD8D"/>
<path d="M329.873 155.335H303.328L302.582 153.041H329.13L329.873 155.335Z" fill="#D2D2D1"/>
<path d="M355.305 139.036H288.733L269.527 81.8698L335.328 81.8324L355.305 139.036Z" fill="#B5E0DA"/>
<g style="mix-blend-mode:multiply" opacity="0.1">
<path d="M196.465 187.706C196.465 187.706 198.748 190.363 225.303 190.792C254.999 193.657 283.997 192.715 281.622 186.163C281.194 184.1 297.276 187.617 302.599 185.204C317.941 178.255 248.655 178.289 248.655 178.289C248.655 178.289 182.935 176.627 196.465 187.706Z" fill="black"/>
</g>
<path d="M159.667 145.537V133.625H125.438V166.401H174.266C174.266 161.842 172.865 157.394 170.253 153.662C167.641 149.929 163.945 147.092 159.667 145.537Z" fill="#BCBCBC"/>
<path d="M124.936 164.382V169.425H139.525C139.526 169.024 139.686 168.639 139.97 168.356C140.253 168.072 140.637 167.913 141.038 167.913H147.077C147.478 167.913 147.862 168.072 148.145 168.356C148.428 168.639 148.587 169.024 148.587 169.425H174.762V164.382H124.936Z" fill="#40403F"/>
<path d="M128.295 166.904H128.634C128.679 166.903 128.723 166.912 128.764 166.929C128.806 166.946 128.843 166.971 128.875 167.003C128.906 167.034 128.931 167.072 128.948 167.113C128.965 167.154 128.974 167.199 128.974 167.243V169.425H127.956V167.243C127.956 167.199 127.964 167.154 127.981 167.113C127.998 167.072 128.023 167.034 128.055 167.003C128.086 166.971 128.124 166.946 128.165 166.929C128.206 166.912 128.251 166.903 128.295 166.904ZM132.824 166.904H133.164C133.208 166.903 133.252 166.912 133.294 166.929C133.335 166.946 133.372 166.971 133.404 167.003C133.435 167.034 133.46 167.072 133.477 167.113C133.494 167.154 133.503 167.199 133.503 167.243V169.425H132.485V167.243C132.485 167.199 132.494 167.154 132.511 167.113C132.528 167.072 132.553 167.034 132.584 167.003C132.616 166.971 132.653 166.946 132.694 166.929C132.736 166.912 132.78 166.903 132.824 166.904ZM137.357 166.904H137.696C137.741 166.903 137.785 166.912 137.826 166.929C137.868 166.946 137.905 166.971 137.937 167.003C137.968 167.034 137.993 167.072 138.01 167.113C138.027 167.154 138.036 167.199 138.036 167.243V169.425H137.018V167.243C137.018 167.199 137.026 167.154 137.043 167.113C137.06 167.072 137.085 167.034 137.117 167.003C137.148 166.971 137.186 166.946 137.227 166.929C137.268 166.912 137.312 166.903 137.357 166.904ZM150.948 166.904H151.288C151.332 166.903 151.376 166.912 151.418 166.929C151.459 166.946 151.496 166.971 151.528 167.003C151.559 167.034 151.584 167.072 151.601 167.113C151.618 167.154 151.627 167.199 151.627 167.243V169.425H150.609V167.243C150.609 167.199 150.618 167.154 150.635 167.113C150.652 167.072 150.677 167.034 150.708 167.003C150.74 166.971 150.777 166.946 150.818 166.929C150.859 166.912 150.904 166.903 150.948 166.904ZM155.478 166.904H155.817C155.861 166.903 155.906 166.912 155.947 166.929C155.988 166.946 156.025 166.971 156.057 167.003C156.089 167.034 156.113 167.072 156.13 167.113C156.147 167.154 156.156 167.199 156.156 167.243V169.425H155.138V167.243C155.138 167.199 155.147 167.154 155.164 167.113C155.181 167.072 155.206 167.034 155.237 167.003C155.269 166.971 155.306 166.946 155.348 166.929C155.389 166.912 155.433 166.903 155.478 166.904ZM160.007 166.904H160.346C160.391 166.903 160.435 166.912 160.476 166.929C160.517 166.946 160.555 166.971 160.586 167.003C160.618 167.034 160.643 167.072 160.66 167.113C160.677 167.154 160.685 167.199 160.685 167.243V169.425H159.667V167.243C159.667 167.199 159.676 167.154 159.693 167.113C159.71 167.072 159.735 167.034 159.767 167.003C159.798 166.971 159.836 166.946 159.877 166.929C159.918 166.912 159.962 166.903 160.007 166.904ZM164.546 166.904H164.885C164.93 166.903 164.974 166.912 165.015 166.929C165.057 166.946 165.094 166.971 165.126 167.003C165.157 167.034 165.182 167.072 165.199 167.113C165.216 167.154 165.225 167.199 165.225 167.243V169.425H164.207V167.243C164.207 167.199 164.215 167.154 164.232 167.113C164.249 167.072 164.274 167.034 164.306 167.003C164.338 166.971 164.375 166.946 164.416 166.929C164.457 166.912 164.502 166.903 164.546 166.904ZM169.069 166.904H169.408C169.453 166.903 169.497 166.912 169.538 166.929C169.579 166.946 169.617 166.971 169.648 167.003C169.68 167.034 169.705 167.072 169.722 167.113C169.739 167.154 169.747 167.199 169.747 167.243V169.425H168.729V167.243C168.729 167.199 168.738 167.154 168.755 167.113C168.772 167.072 168.797 167.034 168.828 167.003C168.86 166.971 168.897 166.946 168.939 166.929C168.98 166.912 169.024 166.903 169.069 166.904Z" fill="#BCBCBC"/>
<path d="M155.891 147.994H150.355C149.845 148.013 149.342 147.877 148.912 147.603C148.482 147.329 148.145 146.931 147.945 146.461C147.78 146.07 147.715 145.644 147.758 145.221C147.801 144.799 147.949 144.395 148.189 144.045C148.429 143.695 148.754 143.412 149.132 143.221C149.511 143.031 149.931 142.939 150.355 142.954H155.891C156.401 142.935 156.904 143.072 157.334 143.346C157.764 143.62 158.101 144.018 158.301 144.488C158.466 144.879 158.531 145.305 158.488 145.727C158.445 146.149 158.297 146.554 158.057 146.904C157.817 147.253 157.492 147.537 157.114 147.727C156.735 147.918 156.315 148.01 155.891 147.994ZM150.355 143.457C149.835 143.479 149.344 143.701 148.984 144.077C148.623 144.453 148.422 144.953 148.422 145.474C148.422 145.995 148.623 146.496 148.984 146.872C149.344 147.248 149.835 147.47 150.355 147.491H155.891C156.163 147.503 156.434 147.459 156.688 147.363C156.942 147.266 157.174 147.119 157.37 146.931C157.665 146.647 157.867 146.28 157.949 145.878C158.03 145.477 157.988 145.06 157.828 144.683C157.667 144.306 157.396 143.987 157.05 143.768C156.704 143.549 156.3 143.441 155.891 143.457H150.355ZM156.146 141.693H150.609C149.941 141.693 149.301 141.427 148.829 140.955C148.357 140.482 148.092 139.841 148.092 139.172C148.092 138.503 148.357 137.862 148.829 137.389C149.301 136.916 149.941 136.65 150.609 136.65H156.146C156.813 136.65 157.454 136.916 157.926 137.389C158.398 137.862 158.663 138.503 158.663 139.172C158.663 139.841 158.398 140.482 157.926 140.955C157.454 141.427 156.813 141.693 156.146 141.693ZM150.609 137.157C150.075 137.157 149.564 137.369 149.186 137.747C148.809 138.125 148.597 138.637 148.597 139.172C148.597 139.706 148.809 140.219 149.186 140.597C149.564 140.975 150.075 141.187 150.609 141.187H156.146C156.679 141.187 157.191 140.975 157.569 140.597C157.946 140.219 158.158 139.706 158.158 139.172C158.158 138.637 157.946 138.125 157.569 137.747C157.191 137.369 156.679 137.157 156.146 137.157H150.609ZM169.839 160.096H171.644C172.139 160.096 172.613 160.293 172.963 160.644C173.313 160.994 173.51 161.47 173.51 161.966V165.643H167.973V161.966C167.973 161.72 168.021 161.477 168.115 161.25C168.208 161.023 168.346 160.817 168.519 160.643C168.692 160.47 168.898 160.332 169.125 160.238C169.351 160.144 169.594 160.096 169.839 160.096ZM125.391 164.827L125.052 164.47L130.253 159.26C130.283 156.761 131.282 154.371 133.039 152.595C134.796 150.819 137.172 149.797 139.668 149.745V133.625H140.17V150.278H139.858C137.443 150.277 135.126 151.235 133.417 152.944C131.708 154.652 130.745 156.971 130.741 159.389V159.495L125.391 164.827Z" fill="#40403F"/>
<path d="M249.832 139.066C249.832 139.066 251.997 142.162 246.606 151.25C243.61 156.3 244.57 158.152 246.005 158.798C246.632 159.064 247.33 159.108 247.985 158.922C248.64 158.737 249.213 158.333 249.608 157.779C252.909 153.289 262.626 138.166 250.107 130.563L249.832 139.066ZM232.248 171.994L237.035 178.73L235.019 182.455L223.769 186.693L232.248 171.994Z" fill="#55585A"/>
<path d="M247.929 158.567L237.035 178.73L235.444 176.491L245.761 157.395L247.929 158.567Z" fill="#55585A"/>
<path d="M250.599 154.971C250.746 155.051 250.911 155.09 251.077 155.087C251.279 155.072 251.472 155.003 251.638 154.888C251.804 154.773 251.936 154.615 252.02 154.431C252.03 154.414 252.036 154.396 252.038 154.376C252.041 154.357 252.039 154.337 252.034 154.319C252.028 154.3 252.019 154.283 252.007 154.268C251.995 154.252 251.98 154.24 251.963 154.231C251.928 154.213 251.888 154.209 251.85 154.22C251.813 154.232 251.781 154.257 251.763 154.292C251.703 154.43 251.607 154.55 251.484 154.638C251.361 154.726 251.217 154.779 251.067 154.791C250.953 154.795 250.84 154.768 250.739 154.713C250.638 154.659 250.554 154.579 250.494 154.482C250.423 154.349 250.388 154.199 250.395 154.049C250.402 153.898 250.449 153.752 250.531 153.626C250.568 153.578 255.79 146.873 254.887 139.923C254.446 136.524 252.634 133.629 249.506 131.284C249.475 131.267 249.438 131.261 249.403 131.269C249.376 131.274 249.352 131.287 249.332 131.305C249.312 131.324 249.297 131.347 249.29 131.373C249.282 131.399 249.282 131.427 249.289 131.453C249.296 131.479 249.31 131.503 249.33 131.522C252.383 133.812 254.165 136.654 254.595 139.964C255.484 146.788 250.338 153.398 250.287 153.462C250.174 153.636 250.111 153.836 250.103 154.043C250.095 154.249 250.143 154.454 250.243 154.635C250.33 154.776 250.453 154.892 250.599 154.971Z" fill="#F8F8F8"/>
<path d="M250.202 139.267C250.202 139.267 253.737 129.173 244.665 123.773C235.593 118.373 230.365 116.025 230.365 116.025C230.365 116.025 218.714 109.656 204.241 136.45C190.589 161.717 194.534 173.945 204.858 181.466C215.182 188.987 223.098 189.432 227.793 184.29C231.206 180.555 231.807 165.327 250.202 139.267Z" fill="url(#paint5_linear_16_626)"/>
<path d="M227.064 131.936H227.084C227.12 131.95 227.161 131.948 227.196 131.932C227.231 131.916 227.259 131.887 227.274 131.851C230.327 123.624 241.099 121.897 241.208 121.88C241.227 121.877 241.245 121.871 241.261 121.861C241.278 121.851 241.292 121.838 241.303 121.822C241.315 121.807 241.323 121.789 241.327 121.771C241.332 121.752 241.333 121.733 241.33 121.714C241.326 121.685 241.314 121.658 241.294 121.636C241.275 121.614 241.249 121.599 241.221 121.593C241.202 121.588 241.183 121.588 241.164 121.591C241.055 121.591 230.093 123.359 226.999 131.749C226.985 131.783 226.983 131.821 226.995 131.856C227.007 131.89 227.031 131.919 227.064 131.936ZM222.901 129.676H222.928C222.965 129.686 223.005 129.682 223.039 129.663C223.073 129.645 223.099 129.615 223.111 129.578C225.513 121.438 232.102 117.003 232.166 116.956C232.199 116.934 232.222 116.901 232.23 116.863C232.238 116.825 232.231 116.785 232.21 116.752C232.188 116.72 232.155 116.698 232.117 116.69C232.079 116.682 232.039 116.69 232.007 116.711C231.939 116.755 225.262 121.255 222.829 129.493C222.816 129.527 222.815 129.565 222.828 129.599C222.842 129.633 222.868 129.661 222.901 129.676Z" fill="#F8F8F8"/>
<path d="M221.656 141.687C221.656 141.687 199.732 172.61 210.891 185.218C208.783 184.137 206.765 182.886 204.858 181.48C203.652 180.606 202.517 179.636 201.466 178.581C200.621 172.528 201.751 159.889 215.983 138.264L221.656 141.687Z" fill="#55585A"/>
<path d="M220.224 141.065C225.822 144.1 232.875 146.163 239.949 143.607C243.197 142.437 246.076 140.426 248.295 137.778C248.318 137.747 248.328 137.707 248.323 137.668C248.317 137.63 248.296 137.595 248.265 137.571C248.234 137.548 248.195 137.539 248.157 137.545C248.118 137.55 248.084 137.571 248.061 137.602C245.873 140.208 243.034 142.188 239.834 143.338C234.904 145.119 226.779 145.663 216.064 138.128C215.983 138.067 207.654 131.505 215.681 120.946C215.705 120.915 215.716 120.875 215.711 120.836C215.709 120.817 215.702 120.798 215.693 120.781C215.683 120.765 215.67 120.75 215.654 120.738C215.639 120.726 215.622 120.717 215.603 120.712C215.585 120.707 215.565 120.706 215.546 120.708C215.527 120.711 215.509 120.718 215.492 120.727C215.476 120.737 215.462 120.75 215.45 120.766C213.075 123.875 210.663 128.636 212.553 133.656C213.241 135.489 214.391 137.112 215.891 138.366C217.282 139.349 218.729 140.25 220.224 141.065ZM217.082 186.792C217.112 186.808 217.147 186.813 217.181 186.807C217.214 186.8 217.244 186.781 217.266 186.755C217.287 186.728 217.299 186.695 217.298 186.66C217.297 186.626 217.285 186.593 217.262 186.567C211.226 179.451 221.703 160.698 222.724 158.907C228.984 163.124 237.778 160.107 237.866 160.076C237.899 160.061 237.925 160.033 237.939 159.999C237.953 159.966 237.954 159.928 237.942 159.893C237.93 159.859 237.905 159.83 237.873 159.813C237.841 159.796 237.803 159.792 237.768 159.801C236.084 160.341 234.343 160.683 232.58 160.82C229.866 161.034 225.964 160.82 222.762 158.591L222.633 158.499L222.551 158.635C220.522 162.208 218.785 165.939 217.357 169.792C214.436 177.86 214.327 183.573 217.038 186.785C217.052 186.789 217.067 186.792 217.082 186.792Z" fill="#F8F8F8"/>
<path d="M204.55 174.499C204.572 174.511 204.597 174.517 204.622 174.516C204.647 174.516 204.671 174.508 204.693 174.495C204.714 174.482 204.732 174.464 204.744 174.442C204.757 174.42 204.763 174.395 204.763 174.37C204.913 158.35 218.243 140.117 218.378 139.933C218.401 139.902 218.411 139.863 218.405 139.825C218.399 139.787 218.379 139.752 218.348 139.729C218.325 139.711 218.297 139.7 218.268 139.699C218.239 139.697 218.21 139.704 218.185 139.72C218.169 139.73 218.155 139.744 218.144 139.76C218.008 139.94 204.617 158.251 204.472 174.367C204.471 174.394 204.478 174.421 204.492 174.444C204.506 174.467 204.526 174.486 204.55 174.499ZM225.415 153.612L225.296 153.541L228.539 147.084L228.651 147.114C228.74 147.134 237.422 149.282 244.339 147.943L244.679 147.879L244.502 148.164C243.352 150.03 242.253 151.903 241.232 153.738L241.184 153.789C241.113 153.836 234.127 158.35 226.087 153.993C225.856 153.877 225.632 153.75 225.415 153.612ZM244.075 148.29C237.588 149.435 229.74 147.668 228.702 147.423L225.69 153.429C227.995 154.814 230.629 155.558 233.318 155.583C236.007 155.607 238.653 154.912 240.984 153.568C241.947 151.841 242.986 150.067 244.068 148.3L244.075 148.29Z" fill="#F8F8F8"/>
<path d="M283.366 160.351V148.44H249.137V181.215H297.964C297.964 176.656 296.563 172.209 293.951 168.476C291.339 164.743 287.643 161.906 283.366 160.351Z" fill="#BCBCBC"/>
<path d="M248.634 179.196V184.239H263.223C263.224 183.838 263.384 183.453 263.668 183.17C263.951 182.886 264.335 182.727 264.736 182.727H270.775C271.074 182.727 271.366 182.815 271.614 182.982C271.862 183.148 272.056 183.384 272.17 183.661C272.246 183.844 272.285 184.041 272.285 184.239H298.46V179.196H248.634Z" fill="#40403F"/>
<path d="M251.993 181.718H252.332C252.377 181.717 252.421 181.726 252.462 181.743C252.504 181.76 252.541 181.785 252.573 181.817C252.604 181.848 252.629 181.886 252.646 181.927C252.663 181.969 252.672 182.013 252.672 182.057V184.239H251.654V182.057C251.654 182.013 251.662 181.969 251.679 181.927C251.696 181.886 251.721 181.848 251.753 181.817C251.785 181.785 251.822 181.76 251.863 181.743C251.904 181.726 251.949 181.717 251.993 181.718ZM256.522 181.718H256.862C256.906 181.717 256.951 181.726 256.992 181.743C257.033 181.76 257.07 181.785 257.102 181.817C257.133 181.848 257.158 181.886 257.175 181.927C257.192 181.969 257.201 182.013 257.201 182.057V184.239H256.183V182.057C256.183 182.013 256.192 181.969 256.209 181.927C256.226 181.886 256.251 181.848 256.282 181.817C256.314 181.785 256.351 181.76 256.392 181.743C256.434 181.726 256.478 181.717 256.522 181.718ZM261.055 181.718H261.394C261.439 181.717 261.483 181.726 261.524 181.743C261.566 181.76 261.603 181.785 261.635 181.817C261.666 181.848 261.691 181.886 261.708 181.927C261.725 181.969 261.734 182.013 261.734 182.057V184.239H260.716V182.057C260.716 182.013 260.724 181.969 260.741 181.927C260.758 181.886 260.783 181.848 260.815 181.817C260.846 181.785 260.884 181.76 260.925 181.743C260.966 181.726 261.011 181.717 261.055 181.718ZM274.646 181.718H274.986C275.03 181.717 275.074 181.726 275.116 181.743C275.157 181.76 275.194 181.785 275.226 181.817C275.257 181.848 275.282 181.886 275.299 181.927C275.316 181.969 275.325 182.013 275.325 182.057V184.239H274.307V182.057C274.307 182.013 274.316 181.969 274.333 181.927C274.35 181.886 274.375 181.848 274.406 181.817C274.438 181.785 274.475 181.76 274.516 181.743C274.558 181.726 274.602 181.717 274.646 181.718ZM279.176 181.718H279.515C279.559 181.717 279.604 181.726 279.645 181.743C279.686 181.76 279.724 181.785 279.755 181.817C279.787 181.848 279.812 181.886 279.829 181.927C279.846 181.969 279.854 182.013 279.854 182.057V184.239H278.836V182.057C278.836 182.013 278.845 181.969 278.862 181.927C278.879 181.886 278.904 181.848 278.935 181.817C278.967 181.785 279.004 181.76 279.046 181.743C279.087 181.726 279.131 181.717 279.176 181.718ZM283.705 181.718H284.044C284.089 181.717 284.133 181.726 284.174 181.743C284.215 181.76 284.253 181.785 284.284 181.817C284.316 181.848 284.341 181.886 284.358 181.927C284.375 181.969 284.383 182.013 284.383 182.057V184.239H283.366V182.057C283.365 182.013 283.374 181.969 283.391 181.927C283.408 181.886 283.433 181.848 283.465 181.817C283.496 181.785 283.534 181.76 283.575 181.743C283.616 181.726 283.66 181.717 283.705 181.718ZM288.234 181.718H288.573C288.618 181.717 288.662 181.726 288.703 181.743C288.745 181.76 288.782 181.785 288.814 181.817C288.845 181.848 288.87 181.886 288.887 181.927C288.904 181.969 288.913 182.013 288.913 182.057V184.239H287.895V182.057C287.895 182.013 287.903 181.969 287.92 181.927C287.937 181.886 287.962 181.848 287.994 181.817C288.025 181.785 288.063 181.76 288.104 181.743C288.145 181.726 288.189 181.717 288.234 181.718ZM292.767 181.718H293.106C293.151 181.717 293.195 181.726 293.236 181.743C293.277 181.76 293.315 181.785 293.346 181.817C293.378 181.848 293.403 181.886 293.42 181.927C293.437 181.969 293.445 182.013 293.445 182.057V184.239H292.427V182.057C292.427 182.013 292.436 181.969 292.453 181.927C292.47 181.886 292.495 181.848 292.527 181.817C292.558 181.785 292.596 181.76 292.637 181.743C292.678 181.726 292.722 181.717 292.767 181.718Z" fill="#BCBCBC"/>
<path d="M279.589 162.808H274.053C273.567 162.791 273.096 162.633 272.698 162.353C272.3 162.073 271.992 161.684 271.81 161.232C271.628 160.781 271.58 160.286 271.673 159.808C271.766 159.33 271.995 158.889 272.332 158.538C272.785 158.069 273.401 157.793 274.053 157.768H279.589C280.099 157.749 280.602 157.886 281.032 158.16C281.462 158.434 281.799 158.832 281.999 159.302C282.164 159.693 282.229 160.119 282.186 160.541C282.143 160.963 281.995 161.368 281.755 161.718C281.515 162.067 281.19 162.351 280.812 162.541C280.433 162.732 280.013 162.824 279.589 162.808ZM274.053 158.271C273.533 158.293 273.042 158.515 272.682 158.891C272.321 159.267 272.12 159.767 272.12 160.288C272.12 160.809 272.321 161.31 272.681 161.686C273.041 162.062 273.533 162.284 274.053 162.305H279.589C280.068 162.326 280.539 162.175 280.916 161.88C281.294 161.584 281.554 161.163 281.65 160.693C281.746 160.223 281.671 159.734 281.44 159.313C281.208 158.893 280.834 158.57 280.386 158.401C280.132 158.304 279.861 158.26 279.589 158.271H274.053ZM279.844 156.508H274.307C273.639 156.507 272.999 156.242 272.527 155.769C272.293 155.535 272.108 155.257 271.981 154.951C271.855 154.645 271.79 154.317 271.79 153.986C271.79 153.487 271.938 153 272.214 152.585C272.491 152.171 272.884 151.847 273.343 151.656C273.649 151.529 273.976 151.464 274.307 151.464H279.844C280.511 151.464 281.152 151.73 281.624 152.203C282.096 152.676 282.361 153.317 282.361 153.986C282.361 154.655 282.096 155.296 281.624 155.769C281.152 156.242 280.511 156.507 279.844 156.508ZM274.307 151.967C273.828 151.946 273.358 152.097 272.98 152.393C272.602 152.688 272.342 153.109 272.246 153.579C272.151 154.05 272.225 154.539 272.457 154.959C272.689 155.379 273.062 155.703 273.511 155.872C273.765 155.968 274.036 156.012 274.307 156.001H279.844C280.364 155.98 280.855 155.758 281.215 155.382C281.575 155.006 281.776 154.505 281.776 153.984C281.777 153.463 281.575 152.962 281.215 152.586C280.855 152.21 280.364 151.988 279.844 151.967H274.307ZM293.537 174.91H295.342C295.587 174.91 295.83 174.958 296.056 175.052C296.283 175.146 296.488 175.284 296.662 175.457C296.835 175.631 296.972 175.837 297.066 176.064C297.16 176.291 297.208 176.534 297.208 176.78V180.46H291.671V176.78C291.671 176.534 291.719 176.291 291.813 176.064C291.906 175.837 292.044 175.631 292.217 175.457C292.39 175.284 292.596 175.146 292.823 175.052C293.049 174.958 293.292 174.91 293.537 174.91ZM249.089 179.655L248.733 179.315L253.934 174.105C253.964 171.605 254.963 169.215 256.72 167.44C258.477 165.664 260.854 164.642 263.349 164.589V148.44H263.851V165.092H263.539C261.131 165.099 258.824 166.06 257.121 167.765C255.419 169.47 254.459 171.782 254.453 174.193V174.299L249.089 179.655Z" fill="#40403F"/>
<g style="mix-blend-mode:multiply" opacity="0.1">
<path d="M240.977 153.578C240.977 153.578 244.689 138.081 250.107 130.567C249.789 129.418 249.292 128.326 248.634 127.331C248.634 127.331 242.134 135.41 237.964 153.578H240.977ZM237.381 152.82C237.381 152.82 240.176 131.882 245.595 124.368C245.595 124.368 244.665 123.773 242.68 122.54C242.68 122.54 235.681 134.016 234.365 152.82H237.381Z" fill="black"/>
</g>
<path d="M253.435 81.0032C253.435 81.0032 251.301 77.5027 257.116 79.1816C262.931 80.8604 260.081 83.5996 260.081 83.5996C260.081 83.5996 259.355 92.2658 255.301 99.9668C255.021 100.51 254.903 101.122 254.962 101.731L255.152 103.895C255.171 104.109 255.133 104.324 255.041 104.518C254.949 104.711 254.807 104.877 254.629 104.997L254.002 105.425C253.844 105.531 253.665 105.603 253.477 105.636C253.29 105.669 253.097 105.662 252.913 105.615L250.042 104.888C249.754 104.814 249.495 104.654 249.298 104.429C249.102 104.205 248.978 103.927 248.943 103.63L248.685 101.547C248.631 101.104 248.71 100.654 248.913 100.256C250.249 97.632 255.318 87.0219 253.435 81.0032Z" fill="#222222"/>
<path d="M252.756 105.599L250.036 104.897L236.428 157.832L239.148 158.534L252.756 105.599Z" fill="#55585A"/>
<path d="M239.594 158.649L236.01 157.725L234.769 162.553L238.353 163.477L239.594 158.649Z" fill="url(#paint6_linear_16_626)"/>
<path d="M237.771 163.326L235.356 162.703L234.492 166.064L236.907 166.687L237.771 163.326Z" fill="url(#paint7_linear_16_626)"/>
<path d="M235.294 171.048L233.799 170.663L232.191 176.919L233.686 177.305L235.294 171.048Z" fill="url(#paint8_linear_16_626)"/>
<path d="M232.984 180.069L231.488 179.685L229.812 186.204L229.937 188.426C229.939 188.448 229.948 188.469 229.962 188.486C229.973 188.498 229.986 188.508 230.001 188.514C230.017 188.52 230.033 188.523 230.049 188.522C230.066 188.521 230.081 188.516 230.096 188.507C230.11 188.499 230.122 188.488 230.131 188.474L231.308 186.591L232.984 180.069Z" fill="url(#paint9_linear_16_626)"/>
<path d="M237.3 166.789L234.093 165.961L232.942 170.441L236.149 171.268L237.3 166.789Z" fill="url(#paint10_linear_16_626)"/>
<path d="M232.623 176.567L233.477 176.787C233.632 176.827 233.777 176.897 233.904 176.993C234.032 177.089 234.139 177.209 234.22 177.347C234.302 177.485 234.355 177.637 234.377 177.795C234.399 177.953 234.39 178.114 234.35 178.269L231.144 177.442C231.224 177.13 231.425 176.862 231.703 176.698C231.98 176.534 232.311 176.487 232.623 176.567Z" fill="#76797B"/>
<path d="M231.34 177.215L234.297 177.978C234.452 178.018 234.597 178.088 234.724 178.184C234.852 178.28 234.959 178.4 235.04 178.538C235.121 178.675 235.175 178.827 235.197 178.986C235.219 179.144 235.21 179.305 235.17 179.46L229.861 178.09C229.942 177.778 230.143 177.51 230.42 177.346C230.697 177.182 231.028 177.135 231.34 177.215Z" fill="#A1A0A0"/>
<path d="M230.895 178.371L234.101 179.198C234.021 179.51 233.82 179.778 233.543 179.942C233.265 180.106 232.934 180.153 232.622 180.073L231.768 179.852C231.456 179.772 231.189 179.571 231.025 179.293C230.861 179.015 230.814 178.683 230.895 178.371Z" fill="#76797B"/>
<path d="M259.986 84.5342C259.986 84.5342 265.476 86.8248 264.987 99.6269L262.673 110.808C262.639 110.976 262.546 111.127 262.411 111.233C262.277 111.338 262.108 111.393 261.937 111.386L257.089 111.199C256.92 111.19 256.759 111.122 256.635 111.007C256.51 110.891 256.431 110.735 256.411 110.567C255.928 106.242 256.431 101.863 257.883 97.7612C257.883 97.7612 261.537 89.7849 259.623 86.9335L259.986 84.5342Z" fill="#55585A"/>
<path d="M262.131 100.895C264.231 88.14 259.861 85.3362 259.861 85.3362L259.613 86.9335C261.527 89.7849 257.873 97.7611 257.873 97.7611C256.421 101.863 255.917 106.242 256.4 110.567C256.421 110.735 256.5 110.891 256.624 111.007C256.749 111.122 256.91 111.19 257.079 111.199L261.927 111.386C262.098 111.393 262.266 111.338 262.401 111.233C262.536 111.127 262.629 110.976 262.663 110.808C260.689 110.298 262.131 100.895 262.131 100.895Z" fill="#76797B"/>
<path d="M250.616 112.793H250.65L245.785 131.719C245.59 131.622 245.428 131.469 245.32 131.281C245.242 131.15 245.192 131.006 245.171 130.856C245.15 130.706 245.159 130.554 245.198 130.407L249.503 113.656C249.566 113.408 249.709 113.189 249.911 113.033C250.113 112.876 250.361 112.792 250.616 112.793ZM250.616 112.538C250.305 112.538 250.002 112.643 249.757 112.834C249.511 113.025 249.336 113.293 249.259 113.595L244.953 130.346C244.865 130.706 244.922 131.087 245.113 131.406C245.303 131.724 245.612 131.954 245.971 132.045L250.975 112.568C250.864 112.54 250.751 112.525 250.636 112.524L250.616 112.538Z" fill="#F8F8F8"/>
<path d="M262.477 98.3729C262.477 98.3729 259.135 97.9379 259.135 103.178C259.135 108.419 259.057 110.944 260.098 111.314" stroke="#F8F8F8" stroke-width="0.75" stroke-miterlimit="10"/>
<path d="M234.249 65.2511C234.249 65.2511 231.396 62.308 237.438 62.6581C243.481 63.0081 241.306 66.3251 241.306 66.3251C241.306 66.3251 242.504 74.9402 240.244 83.3447C240.088 83.9364 240.106 84.5607 240.295 85.1425L240.974 87.2122C241.039 87.4164 241.048 87.6343 241.001 87.8435C240.954 88.0526 240.852 88.2453 240.706 88.4017L240.187 88.959C240.057 89.0986 239.899 89.2088 239.724 89.2822C239.548 89.3553 239.359 89.3899 239.169 89.3839L236.207 89.2955C235.908 89.2887 235.618 89.1912 235.376 89.0158C235.134 88.8404 234.95 88.5955 234.85 88.3133L234.137 86.3218C233.987 85.8992 233.966 85.4413 234.076 85.0066C234.796 82.162 237.401 70.6887 234.249 65.2511Z" fill="#222222"/>
<path d="M238.99 89.3879L236.182 89.3043L234.563 143.942L237.372 144.025L238.99 89.3879Z" fill="#55585A"/>
<path d="M237.833 144.044L234.134 143.933L233.986 148.917L237.686 149.027L237.833 144.044Z" fill="url(#paint11_linear_16_626)"/>
<path d="M237.082 149.005L234.59 148.931L234.487 152.399L236.979 152.474L237.082 149.005Z" fill="url(#paint12_linear_16_626)"/>
<path d="M236.371 157.081L234.828 157.035L234.637 163.493L236.18 163.539L236.371 157.081Z" fill="url(#paint13_linear_16_626)"/>
<path d="M236.109 166.384L234.565 166.339L234.365 173.068L234.975 175.206C234.982 175.227 234.995 175.246 235.012 175.26C235.03 175.273 235.052 175.28 235.074 175.28C235.096 175.28 235.118 175.273 235.135 175.26C235.153 175.246 235.166 175.227 235.172 175.206L235.908 173.109L236.109 166.384Z" fill="url(#paint14_linear_16_626)"/>
<path d="M237.387 152.489L234.077 152.391L233.94 157.014L237.25 157.112L237.387 152.489Z" fill="url(#paint15_linear_16_626)"/>
<path d="M234.979 163.058L235.861 163.085C236.021 163.089 236.178 163.125 236.323 163.191C236.469 163.256 236.6 163.35 236.709 163.466C236.819 163.582 236.904 163.719 236.961 163.869C237.017 164.018 237.044 164.177 237.039 164.337L233.726 164.238C233.733 163.997 233.812 163.764 233.952 163.568C234.091 163.372 234.286 163.221 234.511 163.136C234.661 163.08 234.82 163.053 234.979 163.058Z" fill="#76797B"/>
<path d="M233.87 163.973L236.922 164.064C237.081 164.068 237.238 164.105 237.384 164.17C237.529 164.235 237.661 164.329 237.77 164.445C237.879 164.562 237.965 164.698 238.021 164.848C238.078 164.997 238.105 165.156 238.1 165.316L232.62 165.153C232.624 164.993 232.66 164.836 232.726 164.69C232.791 164.544 232.884 164.413 233 164.303C233.117 164.194 233.253 164.108 233.402 164.052C233.551 163.995 233.71 163.968 233.87 163.973Z" fill="#A1A0A0"/>
<path d="M233.701 165.184L237.011 165.282C237.007 165.442 236.971 165.599 236.905 165.745C236.84 165.891 236.746 166.022 236.63 166.132C236.514 166.242 236.378 166.327 236.229 166.384C236.079 166.441 235.921 166.468 235.761 166.463L234.879 166.436C234.72 166.432 234.563 166.396 234.418 166.33C234.272 166.265 234.141 166.171 234.031 166.055C233.922 165.939 233.837 165.802 233.78 165.652C233.723 165.503 233.697 165.344 233.701 165.184Z" fill="#76797B"/>
<path d="M241.408 67.2393C241.408 67.2393 247.267 68.2588 249.612 80.8536L249.815 92.2692C249.818 92.4406 249.76 92.6076 249.652 92.7407C249.544 92.8737 249.393 92.9643 249.225 92.9965L244.455 93.8835C244.286 93.9161 244.112 93.887 243.963 93.8015C243.814 93.7161 243.701 93.5799 243.644 93.4179C242.221 89.3069 241.748 84.9262 242.26 80.6055C242.26 80.6055 244.068 72.0175 241.581 69.659L241.408 67.2393Z" fill="#55585A"/>
<path d="M247.101 82.7194C246.341 69.8051 241.462 68.0481 241.462 68.0481L241.561 69.6692C244.054 72.0277 242.239 80.6157 242.239 80.6157C241.728 84.9364 242.201 89.3171 243.623 93.4281C243.68 93.5901 243.794 93.7263 243.943 93.8117C244.091 93.8972 244.266 93.9262 244.434 93.8937L249.204 93.0067C249.373 92.9744 249.524 92.8838 249.632 92.7508C249.74 92.6177 249.798 92.4508 249.795 92.2794C247.766 92.208 247.101 82.7194 247.101 82.7194Z" fill="#76797B"/>
<path d="M238.524 96.8571L237.944 116.395C237.692 116.328 237.471 116.179 237.314 115.97C237.158 115.762 237.076 115.507 237.082 115.246L237.595 97.9549C237.601 97.6929 237.696 97.441 237.865 97.2412C238.035 97.0414 238.267 96.9059 238.524 96.8571ZM238.745 96.5819C238.38 96.5815 238.03 96.7233 237.768 96.9771C237.506 97.2306 237.352 97.5764 237.34 97.9413L236.828 115.229C236.817 115.601 236.953 115.963 237.208 116.234C237.462 116.506 237.814 116.665 238.185 116.677L238.779 96.5751L238.745 96.5819Z" fill="#F8F8F8"/>
<path d="M246.887 80.1841C246.887 80.1841 243.528 80.5002 244.682 85.6217C245.835 90.7432 246.317 93.214 247.416 93.3465" stroke="#F8F8F8" stroke-width="0.75" stroke-miterlimit="10"/>
<g style="mix-blend-mode:multiply" opacity="0.1">
<path d="M208.872 184.103C208.872 184.103 223.854 185.622 225.296 167.254L226.076 153.999H240.977C240.977 153.999 234.1 183.328 224.014 186.965C224.02 186.948 218.151 189.799 208.872 184.103ZM249.137 151.967H264.896V164.569C264.896 164.569 283.556 162.679 284.373 184.239H248.634L249.137 151.967Z" fill="black"/>
</g>
<path d="M262.195 164.797V152.885H227.966V185.66H276.791C276.791 181.102 275.39 176.654 272.779 172.922C270.167 169.189 266.472 166.352 262.195 164.797Z" fill="#BCBCBC"/>
<path d="M227.461 183.641V188.685H242.049C242.049 188.283 242.208 187.899 242.491 187.615C242.775 187.332 243.159 187.172 243.559 187.172H249.601C250.002 187.172 250.386 187.332 250.669 187.615C250.952 187.899 251.111 188.283 251.111 188.685H277.286V183.641H227.461Z" fill="#40403F"/>
<path d="M230.823 186.163H231.162C231.207 186.163 231.251 186.171 231.292 186.188C231.333 186.205 231.371 186.23 231.402 186.262C231.434 186.294 231.459 186.331 231.476 186.372C231.493 186.414 231.501 186.458 231.501 186.503V188.685H230.483V186.503C230.483 186.458 230.492 186.414 230.509 186.372C230.526 186.331 230.551 186.294 230.582 186.262C230.614 186.23 230.651 186.205 230.693 186.188C230.734 186.171 230.778 186.163 230.823 186.163ZM235.352 186.163H235.691C235.736 186.163 235.78 186.171 235.821 186.188C235.862 186.205 235.9 186.23 235.931 186.262C235.963 186.294 235.988 186.331 236.005 186.372C236.022 186.414 236.031 186.458 236.03 186.503V188.685H235.013V186.503C235.013 186.458 235.021 186.414 235.038 186.372C235.055 186.331 235.08 186.294 235.112 186.262C235.143 186.23 235.181 186.205 235.222 186.188C235.263 186.171 235.307 186.163 235.352 186.163ZM239.881 186.163H240.22C240.265 186.163 240.309 186.171 240.35 186.188C240.392 186.205 240.429 186.23 240.461 186.262C240.492 186.294 240.517 186.331 240.534 186.372C240.551 186.414 240.56 186.458 240.56 186.503V188.685H239.542V186.503C239.542 186.458 239.55 186.414 239.567 186.372C239.584 186.331 239.609 186.294 239.641 186.262C239.673 186.23 239.71 186.205 239.751 186.188C239.792 186.171 239.837 186.163 239.881 186.163ZM253.472 186.163H253.812C253.856 186.163 253.9 186.171 253.942 186.188C253.983 186.205 254.02 186.23 254.052 186.262C254.083 186.294 254.108 186.331 254.125 186.372C254.142 186.414 254.151 186.458 254.151 186.503V188.685H253.133V186.503C253.133 186.458 253.142 186.414 253.159 186.372C253.176 186.331 253.201 186.294 253.232 186.262C253.264 186.23 253.301 186.205 253.342 186.188C253.384 186.171 253.428 186.163 253.472 186.163ZM258.002 186.163H258.341C258.386 186.163 258.43 186.171 258.471 186.188C258.512 186.205 258.55 186.23 258.581 186.262C258.613 186.294 258.638 186.331 258.655 186.372C258.672 186.414 258.68 186.458 258.68 186.503V188.685H257.662V186.503C257.662 186.458 257.671 186.414 257.688 186.372C257.705 186.331 257.73 186.294 257.761 186.262C257.793 186.23 257.83 186.205 257.872 186.188C257.913 186.171 257.957 186.163 258.002 186.163ZM262.534 186.163H262.874C262.918 186.163 262.962 186.171 263.004 186.188C263.045 186.205 263.082 186.23 263.114 186.262C263.145 186.294 263.17 186.331 263.187 186.372C263.204 186.414 263.213 186.458 263.213 186.503V188.685H262.195V186.503C262.195 186.458 262.204 186.414 262.221 186.372C262.238 186.331 262.263 186.294 262.294 186.262C262.326 186.23 262.363 186.205 262.404 186.188C262.446 186.171 262.49 186.163 262.534 186.163ZM267.064 186.163H267.403C267.447 186.163 267.492 186.171 267.533 186.188C267.574 186.205 267.612 186.23 267.643 186.262C267.675 186.294 267.7 186.331 267.717 186.372C267.734 186.414 267.742 186.458 267.742 186.503V188.685H266.724V186.503C266.724 186.458 266.733 186.414 266.75 186.372C266.767 186.331 266.792 186.294 266.823 186.262C266.855 186.23 266.892 186.205 266.934 186.188C266.975 186.171 267.019 186.163 267.064 186.163ZM271.593 186.163H271.932C271.977 186.163 272.021 186.171 272.062 186.188C272.103 186.205 272.141 186.23 272.172 186.262C272.204 186.294 272.229 186.331 272.246 186.372C272.263 186.414 272.272 186.458 272.271 186.503V188.685H271.254V186.503C271.253 186.458 271.262 186.414 271.279 186.372C271.296 186.331 271.321 186.294 271.353 186.262C271.384 186.23 271.422 186.205 271.463 186.188C271.504 186.171 271.548 186.163 271.593 186.163Z" fill="#BCBCBC"/>
<path d="M258.419 167.254H252.882C252.373 167.273 251.87 167.136 251.439 166.862C251.009 166.588 250.672 166.19 250.473 165.72C250.307 165.329 250.243 164.903 250.286 164.481C250.328 164.059 250.476 163.654 250.717 163.304C250.957 162.955 251.281 162.671 251.66 162.481C252.038 162.29 252.459 162.198 252.882 162.214H258.419C258.928 162.195 259.432 162.331 259.862 162.605C260.292 162.879 260.629 163.277 260.828 163.747C260.994 164.138 261.058 164.564 261.016 164.986C260.973 165.409 260.825 165.813 260.584 166.163C260.344 166.513 260.02 166.796 259.641 166.986C259.263 167.177 258.842 167.269 258.419 167.254ZM252.882 162.717C252.362 162.738 251.871 162.96 251.511 163.336C251.151 163.712 250.95 164.213 250.95 164.734C250.95 165.255 251.151 165.755 251.511 166.131C251.871 166.507 252.362 166.729 252.882 166.751H258.419C258.939 166.729 259.43 166.507 259.79 166.131C260.15 165.755 260.351 165.255 260.351 164.734C260.351 164.213 260.15 163.712 259.79 163.336C259.43 162.96 258.939 162.738 258.419 162.717H252.882ZM258.67 160.953H253.133C252.803 160.953 252.475 160.888 252.17 160.761C251.864 160.634 251.587 160.449 251.353 160.214C251.001 159.862 250.762 159.412 250.665 158.923C250.568 158.434 250.618 157.927 250.808 157.467C250.999 157.006 251.321 156.612 251.735 156.335C252.149 156.058 252.635 155.91 253.133 155.909H258.67C259.168 155.91 259.654 156.058 260.068 156.335C260.482 156.612 260.805 157.005 260.996 157.466C261.186 157.927 261.236 158.434 261.139 158.923C261.042 159.412 260.802 159.861 260.45 160.214C259.978 160.687 259.338 160.953 258.67 160.953ZM253.133 156.412C252.613 156.434 252.122 156.656 251.762 157.032C251.402 157.408 251.201 157.908 251.201 158.429C251.201 158.95 251.402 159.451 251.762 159.827C252.122 160.203 252.613 160.425 253.133 160.446H258.67C259.149 160.467 259.619 160.316 259.997 160.021C260.375 159.725 260.635 159.304 260.731 158.834C260.827 158.364 260.752 157.875 260.52 157.454C260.288 157.034 259.915 156.711 259.466 156.542C259.212 156.445 258.941 156.401 258.67 156.412H253.133ZM272.366 179.356H274.171C274.416 179.355 274.659 179.404 274.886 179.498C275.112 179.591 275.318 179.729 275.491 179.903C275.664 180.076 275.802 180.282 275.896 180.509C275.989 180.736 276.037 180.979 276.037 181.225V184.902H270.5V181.225C270.5 180.979 270.548 180.736 270.642 180.509C270.736 180.282 270.873 180.076 271.047 179.903C271.22 179.729 271.426 179.591 271.652 179.498C271.879 179.404 272.121 179.355 272.366 179.356ZM227.919 184.1L227.579 183.743L232.78 178.533C232.81 176.034 233.808 173.644 235.564 171.868C237.321 170.093 239.697 169.07 242.192 169.017V152.885H242.697V169.537H242.382C239.969 169.54 237.656 170.501 235.951 172.21C234.245 173.919 233.285 176.236 233.282 178.652V178.761L227.919 184.1Z" fill="#40403F"/>
<g style="mix-blend-mode:multiply" opacity="0.1">
<path d="M104.702 174.071C97.7404 173.412 91.6098 169.357 84.648 168.695C81.5742 168.406 74.6463 168.311 72.6446 170.669C72.0034 171.427 71.5963 172.368 70.8736 173.048C69.6488 174.207 67.8202 174.346 66.1238 174.407C50.402 174.931 34.8533 171.964 19.179 170.605C12.173 169.993 8.02714 171.624 8.96352 175.023C11.8575 177.687 14.7854 177.296 21.0992 177.306C41.5505 177.347 61.9338 182.006 82.2697 179.828C93.5131 178.622 105.272 178.941 116.485 180.406C120.753 180.967 128.584 180.385 134.158 179.831C148.879 178.363 159.997 168.708 174.768 169.446L114.582 169.354V174.112L104.702 174.071Z" fill="black"/>
</g>
</g>
<defs>
<linearGradient id="paint0_linear_16_626" x1="36.7328" y1="195.4" x2="400.455" y2="195.4" gradientUnits="userSpaceOnUse">
<stop stop-color="#018A72"/>
<stop offset="1" stop-color="#F1F3BD" stop-opacity="0"/>
</linearGradient>
<linearGradient id="paint1_linear_16_626" x1="132.784" y1="165.096" x2="153.864" y2="45.5147" gradientUnits="userSpaceOnUse">
<stop stop-color="#F2F9F8"/>
<stop offset="1" stop-color="#B5E0DA"/>
</linearGradient>
<linearGradient id="paint2_linear_16_626" x1="119.155" y1="107.45" x2="158.312" y2="170.97" gradientUnits="userSpaceOnUse">
<stop stop-color="#231F20"/>
<stop offset="0.33" stop-color="#3F3C3D" stop-opacity="0.87"/>
<stop offset="0.69" stop-color="#939191" stop-opacity="0.49"/>
<stop offset="1" stop-color="white" stop-opacity="0"/>
</linearGradient>
<linearGradient id="paint3_linear_16_626" x1="87.5895" y1="111.1" x2="46.2823" y2="157.763" gradientUnits="userSpaceOnUse">
<stop stop-color="#231F20"/>
<stop offset="0.33" stop-color="#3F3C3D" stop-opacity="0.87"/>
<stop offset="0.69" stop-color="#939191" stop-opacity="0.49"/>
<stop offset="1" stop-color="white" stop-opacity="0"/>
</linearGradient>
<linearGradient id="paint4_linear_16_626" x1="315.857" y1="183.335" x2="182.586" y2="-12.9513" gradientUnits="userSpaceOnUse">
<stop stop-color="#B5E0DA" stop-opacity="0"/>
<stop offset="0.02" stop-color="#AFDDD7" stop-opacity="0.03"/>
<stop offset="0.36" stop-color="#65BAAC" stop-opacity="0.44"/>
<stop offset="0.64" stop-color="#2FA08C" stop-opacity="0.75"/>
<stop offset="0.87" stop-color="#0D9079" stop-opacity="0.93"/>
<stop offset="1" stop-color="#018A72"/>
</linearGradient>
<linearGradient id="paint5_linear_16_626" x1="239.481" y1="110.778" x2="201.789" y2="182.187" gradientUnits="userSpaceOnUse">
<stop stop-color="#A1A0A0"/>
<stop offset="0.31" stop-color="#9D9C9D"/>
<stop offset="0.61" stop-color="#919292"/>
<stop offset="0.91" stop-color="#7D8081"/>
<stop offset="1" stop-color="#76797B"/>
</linearGradient>
<linearGradient id="paint6_linear_16_626" x1="235.39" y1="160.137" x2="238.975" y2="161.059" gradientUnits="userSpaceOnUse">
<stop stop-color="#A1A0A0"/>
<stop offset="0.31" stop-color="#9D9C9D"/>
<stop offset="0.61" stop-color="#919292"/>
<stop offset="0.91" stop-color="#7D8081"/>
<stop offset="1" stop-color="#76797B"/>
</linearGradient>
<linearGradient id="paint7_linear_16_626" x1="235.506" y1="167.136" x2="236.428" y2="163.559" gradientUnits="userSpaceOnUse">
<stop stop-color="#A1A0A0"/>
<stop offset="0.31" stop-color="#9D9C9D"/>
<stop offset="0.61" stop-color="#919292"/>
<stop offset="0.91" stop-color="#7D8081"/>
<stop offset="1" stop-color="#76797B"/>
</linearGradient>
<linearGradient id="paint8_linear_16_626" x1="232.994" y1="173.792" x2="234.49" y2="174.177" gradientUnits="userSpaceOnUse">
<stop stop-color="#A1A0A0"/>
<stop offset="0.31" stop-color="#9D9C9D"/>
<stop offset="0.61" stop-color="#919292"/>
<stop offset="0.91" stop-color="#7D8081"/>
<stop offset="1" stop-color="#76797B"/>
</linearGradient>
<linearGradient id="paint9_linear_16_626" x1="230.364" y1="184.015" x2="231.859" y2="184.4" gradientUnits="userSpaceOnUse">
<stop stop-color="#A1A0A0"/>
<stop offset="0.31" stop-color="#9D9C9D"/>
<stop offset="0.61" stop-color="#919292"/>
<stop offset="0.91" stop-color="#7D8081"/>
<stop offset="1" stop-color="#76797B"/>
</linearGradient>
<linearGradient id="paint10_linear_16_626" x1="233.518" y1="168.2" x2="236.729" y2="169.025" gradientUnits="userSpaceOnUse">
<stop stop-color="#A1A0A0"/>
<stop offset="0.31" stop-color="#9D9C9D"/>
<stop offset="0.61" stop-color="#919292"/>
<stop offset="0.91" stop-color="#7D8081"/>
<stop offset="1" stop-color="#76797B"/>
</linearGradient>
<linearGradient id="paint11_linear_16_626" x1="234.06" y1="146.424" x2="237.76" y2="146.533" gradientUnits="userSpaceOnUse">
<stop stop-color="#A1A0A0"/>
<stop offset="0.31" stop-color="#9D9C9D"/>
<stop offset="0.61" stop-color="#919292"/>
<stop offset="0.91" stop-color="#7D8081"/>
<stop offset="1" stop-color="#76797B"/>
</linearGradient>
<linearGradient id="paint12_linear_16_626" x1="235.709" y1="153.214" x2="235.818" y2="149.525" gradientUnits="userSpaceOnUse">
<stop stop-color="#A1A0A0"/>
<stop offset="0.31" stop-color="#9D9C9D"/>
<stop offset="0.61" stop-color="#919292"/>
<stop offset="0.91" stop-color="#7D8081"/>
<stop offset="1" stop-color="#76797B"/>
</linearGradient>
<linearGradient id="paint13_linear_16_626" x1="234.733" y1="160.266" x2="236.276" y2="160.312" gradientUnits="userSpaceOnUse">
<stop stop-color="#A1A0A0"/>
<stop offset="0.31" stop-color="#9D9C9D"/>
<stop offset="0.61" stop-color="#919292"/>
<stop offset="0.91" stop-color="#7D8081"/>
<stop offset="1" stop-color="#76797B"/>
</linearGradient>
<linearGradient id="paint14_linear_16_626" x1="234.416" y1="170.816" x2="235.959" y2="170.862" gradientUnits="userSpaceOnUse">
<stop stop-color="#A1A0A0"/>
<stop offset="0.31" stop-color="#9D9C9D"/>
<stop offset="0.61" stop-color="#919292"/>
<stop offset="0.91" stop-color="#7D8081"/>
<stop offset="1" stop-color="#76797B"/>
</linearGradient>
<linearGradient id="paint15_linear_16_626" x1="234.008" y1="154.701" x2="237.321" y2="154.799" gradientUnits="userSpaceOnUse">
<stop stop-color="#A1A0A0"/>
<stop offset="0.31" stop-color="#9D9C9D"/>
<stop offset="0.61" stop-color="#919292"/>
<stop offset="0.91" stop-color="#7D8081"/>
<stop offset="1" stop-color="#76797B"/>
</linearGradient>
<clipPath id="clip0_16_626">
<rect width="400" height="226" fill="white"/>
</clipPath>
</defs>
</svg>
