<svg width="180" height="28" viewBox="0 0 180 28" fill="none" xmlns="http://www.w3.org/2000/svg">
<path d="M14.5093 28C12.3909 28 10.4385 27.6608 8.65195 26.9825C6.89094 26.3042 5.35962 25.3495 4.058 24.1184C2.7819 22.8623 1.78654 21.4051 1.07192 19.747C0.357308 18.0888 0 16.2799 0 14.3203C0 12.3607 0.357308 10.5518 1.07192 8.89367C1.78654 7.21041 2.7819 5.75325 4.058 4.52221C5.35962 3.29116 6.89094 2.33647 8.65195 1.65814C10.4385 0.97981 12.3909 0.640644 14.5093 0.640644C16.6276 0.640644 18.5672 0.97981 20.3283 1.65814C22.1148 2.33647 23.6461 3.29116 24.9222 4.52221C26.2238 5.75325 27.232 7.21041 27.9466 8.89367C28.6612 10.5518 29.0185 12.3607 29.0185 14.3203C29.0185 16.2799 28.6612 18.0888 27.9466 19.747C27.232 21.4051 26.2238 22.8623 24.9222 24.1184C23.6461 25.3495 22.1148 26.3042 20.3283 26.9825C18.5672 27.6608 16.6276 28 14.5093 28ZM14.5093 21.4428C15.4536 21.4428 16.3086 21.2669 17.0742 20.9152C17.8399 20.5384 18.4907 20.0233 19.0266 19.3701C19.5626 18.7169 19.971 17.9632 20.2517 17.109C20.5324 16.2297 20.6728 15.3001 20.6728 14.3203C20.6728 13.3405 20.5324 12.4235 20.2517 11.5693C19.971 10.69 19.5626 9.92373 19.0266 9.27052C18.4907 8.61732 17.8399 8.11485 17.0742 7.76312C16.3086 7.38627 15.4536 7.19785 14.5093 7.19785C13.5649 7.19785 12.71 7.38627 11.9443 7.76312C11.1786 8.11485 10.5278 8.61732 9.99186 9.27052C9.4559 9.92373 9.04755 10.69 8.7668 11.5693C8.48606 12.4235 8.34569 13.3405 8.34569 14.3203C8.34569 15.3001 8.48606 16.2297 8.7668 17.109C9.04755 17.9632 9.4559 18.7169 9.99186 19.3701C10.5278 20.0233 11.1786 20.5384 11.9443 20.9152C12.71 21.2669 13.5649 21.4428 14.5093 21.4428Z" fill="#00AC8E"/>
<path d="M42.0183 28C39.951 28 38.1389 27.6231 36.5821 26.8694C35.0252 26.0906 33.8129 25.048 32.9452 23.7416C32.0774 22.41 31.6436 20.9026 31.6436 19.2194V7.98923H38.9556V18.7672C38.9556 19.2194 39.0705 19.659 39.3002 20.0861C39.5299 20.5132 39.8617 20.865 40.2955 21.1413C40.7549 21.3926 41.2781 21.5182 41.8651 21.5182C42.4521 21.5182 42.9498 21.3926 43.3582 21.1413C43.792 20.865 44.1238 20.5132 44.3535 20.0861C44.5832 19.659 44.6981 19.2194 44.6981 18.7672V7.98923H52.0484V19.2194C52.0484 20.9026 51.6401 22.41 50.8233 23.7416C50.0322 25.048 48.8837 26.0906 47.3779 26.8694C45.8721 27.6231 44.0855 28 42.0183 28Z" fill="#00AC8E"/>
<path d="M63.3864 27.5101C61.4468 27.5101 59.9282 26.9699 58.8308 25.8896C57.7333 24.8093 57.1846 23.3396 57.1846 21.4805V3.46703H64.5349V20.8022C64.5349 21.0534 64.6243 21.2669 64.8029 21.4428C64.9816 21.5935 65.1985 21.6689 65.4537 21.6689H69.7797V27.5101H63.3864ZM54.1985 13.4913V7.98923H69.7797V13.4913H54.1985Z" fill="#00AC8E"/>
<path d="M73.1908 27.5101V21.1413H84.5608C84.9947 21.1413 85.352 21.0534 85.6328 20.8775C85.939 20.7017 86.1687 20.4755 86.3218 20.1992C86.5005 19.8977 86.5898 19.5837 86.5898 19.2571C86.5898 18.9053 86.5005 18.5913 86.3218 18.3149C86.1687 18.0135 85.939 17.7748 85.6328 17.5989C85.352 17.4231 84.9947 17.3351 84.5608 17.3351H81.1154C79.4564 17.3351 77.9506 17.0211 76.598 16.393C75.2453 15.7649 74.1606 14.8605 73.3439 13.6797C72.5527 12.4738 72.1571 11.0292 72.1571 9.34589C72.1571 7.68775 72.54 6.24316 73.3056 5.01211C74.0713 3.78107 75.1049 2.82638 76.4065 2.14805C77.7082 1.46972 79.1502 1.13055 80.7325 1.13055H92.9448V7.49933H81.8427C81.4854 7.49933 81.1664 7.5747 80.8857 7.72544C80.6304 7.87618 80.4263 8.07716 80.2731 8.3284C80.1455 8.57963 80.0817 8.85599 80.0817 9.15747C80.0817 9.45895 80.1455 9.73531 80.2731 9.98654C80.4263 10.2378 80.6304 10.4513 80.8857 10.6272C81.1664 10.7779 81.4854 10.8533 81.8427 10.8533H85.5562C87.3682 10.8533 88.9506 11.1925 90.3033 11.8708C91.6559 12.524 92.7023 13.441 93.4425 14.6218C94.1826 15.8026 94.5527 17.1969 94.5527 18.8048C94.5527 20.6389 94.1571 22.2091 93.3659 23.5155C92.6003 24.8219 91.5666 25.8143 90.265 26.4926C88.9634 27.1709 87.5214 27.5101 85.939 27.5101H73.1908Z" fill="#00AC8E"/>
<path d="M97.2555 27.5101V0H104.568V9.0821C105.282 8.57963 106.073 8.20278 106.941 7.95155C107.809 7.67519 108.677 7.53701 109.544 7.53701C111.178 7.53701 112.594 7.88874 113.794 8.59219C115.019 9.29565 115.963 10.3006 116.627 11.607C117.316 12.9134 117.66 14.4711 117.66 16.2799V27.5101H110.31V16.9206C110.31 16.2925 110.17 15.7649 109.889 15.3378C109.634 14.9107 109.289 14.5841 108.855 14.358C108.421 14.1068 107.962 13.9812 107.477 13.9812C106.967 13.9812 106.482 14.0942 106.022 14.3203C105.588 14.5464 105.231 14.8856 104.95 15.3378C104.695 15.7649 104.568 16.2799 104.568 16.8829V27.5101H97.2555Z" fill="#00AC8E"/>
<path d="M129.228 28C127.569 28 126.076 27.5855 124.749 26.7564C123.422 25.9273 122.375 24.7842 121.61 23.3271C120.844 21.8448 120.461 20.1238 120.461 18.1642C120.461 16.079 120.933 14.245 121.878 12.6622C122.822 11.0543 124.124 9.79811 125.783 8.89367C127.467 7.98923 129.42 7.53701 131.64 7.53701C133.809 7.53701 135.698 7.97667 137.306 8.85599C138.914 9.71018 140.164 10.9161 141.058 12.4738C141.976 14.0063 142.436 15.79 142.436 17.825V27.5101H135.468V24.6083H135.239C134.907 25.2867 134.46 25.8896 133.899 26.4172C133.363 26.9197 132.712 27.3091 131.946 27.5855C131.181 27.8618 130.274 28 129.228 28ZM131.487 21.6689C132.176 21.6689 132.776 21.5056 133.286 21.179C133.822 20.8524 134.23 20.4002 134.511 19.8223C134.817 19.2194 134.971 18.541 134.971 17.7873C134.971 17.0588 134.817 16.4181 134.511 15.8654C134.23 15.3127 133.822 14.873 133.286 14.5464C132.776 14.2198 132.176 14.0565 131.487 14.0565C130.823 14.0565 130.223 14.2198 129.687 14.5464C129.152 14.873 128.73 15.3127 128.424 15.8654C128.143 16.4181 128.003 17.0588 128.003 17.7873C128.003 18.541 128.143 19.2194 128.424 19.8223C128.73 20.4002 129.152 20.8524 129.687 21.179C130.223 21.5056 130.823 21.6689 131.487 21.6689Z" fill="#00AC8E"/>
<path d="M145.668 27.5101V14.0565C145.668 12.1974 146.217 10.7277 147.314 9.64737C148.412 8.56707 149.943 8.02692 151.908 8.02692H158.263V13.4913H154.473C154.039 13.4913 153.682 13.6294 153.401 13.9058C153.146 14.157 153.019 14.4962 153.019 14.9233V27.5101H145.668Z" fill="#00AC8E"/>
<path d="M171.539 27.5101C169.319 27.5101 167.341 27.1332 165.606 26.3795C163.87 25.6258 162.492 24.533 161.471 23.1009C160.476 21.6438 159.978 19.8726 159.978 17.7873C159.978 15.5011 160.476 13.6043 161.471 12.0969C162.466 10.5895 163.755 9.45895 165.338 8.70525C166.946 7.92642 168.63 7.53701 170.391 7.53701C172.203 7.53701 173.824 7.91386 175.253 8.66756C176.708 9.39614 177.856 10.4513 178.698 11.8331C179.566 13.2149 180 14.873 180 16.8075C180 17.2849 179.974 17.8376 179.923 18.4657C179.872 19.0686 179.796 19.5837 179.694 20.0108H167.52C167.622 20.4379 167.813 20.8022 168.094 21.1036C168.375 21.38 168.758 21.581 169.242 21.7066C169.727 21.8322 170.276 21.895 170.889 21.895H177.971V27.5101H171.539ZM167.175 16.0162H173.224C173.224 15.7147 173.186 15.4258 173.109 15.1494C173.033 14.873 172.905 14.6218 172.726 14.3957C172.573 14.1445 172.382 13.9309 172.152 13.755C171.922 13.5541 171.642 13.4033 171.31 13.3028C171.003 13.2023 170.659 13.1521 170.276 13.1521C169.791 13.1521 169.357 13.2275 168.975 13.3782C168.617 13.5289 168.311 13.7299 168.056 13.9812C167.8 14.2324 167.596 14.5339 167.443 14.8856C167.316 15.2373 167.226 15.6142 167.175 16.0162Z" fill="#00AC8E"/>
</svg>
